<?xml version="1.0" encoding="UTF-8"?>
<!DOCTYPE svg PUBLIC "-//W3C//DTD SVG 1.1//EN" "http://www.w3.org/Graphics/SVG/1.1/DTD/svg11.dtd">
<svg xmlns="http://www.w3.org/2000/svg" version="1.1" width="500px" height="500px" style="shape-rendering:geometricPrecision; text-rendering:geometricPrecision; image-rendering:optimizeQuality; fill-rule:evenodd; clip-rule:evenodd" xmlns:xlink="http://www.w3.org/1999/xlink">



<g><path style="opacity:1" fill="#2e509e" d="M 110.5,340.5 C 108.917,338.492 107.917,336.159 107.5,333.5C 106.508,328.548 105.842,323.548 105.5,318.5C 105.782,317.222 106.449,316.222 107.5,315.5C 122.733,311.714 128.9,302.047 126,286.5C 124.748,276.647 122.748,266.98 120,257.5C 118.289,254.745 116.122,252.411 113.5,250.5C 169.036,241.866 223.369,228.366 276.5,210C 317.292,196.114 354.292,175.78 387.5,149C 395.404,141.766 402.571,133.933 409,125.5C 417.44,109.756 420.44,93.0896 418,75.5C 415.552,65.7733 410.052,58.2733 401.5,53C 394.485,49.274 387.152,46.4407 379.5,44.5C 378.833,43.8333 378.167,43.1667 377.5,42.5C 397.588,38.1263 417.588,38.6263 437.5,44C 471.424,57.6561 486.59,82.8228 483,119.5C 480.089,136.984 474.089,153.318 465,168.5C 446.453,198.047 422.287,221.88 392.5,240C 354.739,262.044 315.073,280.044 273.5,294C 219.813,311.838 165.48,327.338 110.5,340.5 Z"/></g>
<g><path style="opacity:0.078" fill="#acb7d8" d="M 377.5,42.5 C 378.167,43.1667 378.833,43.8333 379.5,44.5C 377.897,44.6882 376.563,44.1882 375.5,43C 376.094,42.5357 376.761,42.369 377.5,42.5 Z"/></g>
<g><path style="opacity:1" fill="#2f509e" d="M 370.5,47.5 C 384.823,49.7446 396.99,56.0779 407,66.5C 412.907,76.2688 414.573,86.6021 412,97.5C 408.322,96.1487 404.489,95.482 400.5,95.5C 369.585,99.0825 340.585,108.583 313.5,124C 287.928,137.875 264.761,155.041 244,175.5C 230.136,190.88 219.303,208.213 211.5,227.5C 187.468,234.094 163.134,238.927 138.5,242C 145.746,199.823 165.413,164.823 197.5,137C 220.714,117.786 245.047,100.119 270.5,84C 302.443,67.744 335.777,55.5773 370.5,47.5 Z"/></g>
<g><path style="opacity:1" fill="#e83c2e" d="M 57.5,247.5 C 59.5824,247.472 61.4157,248.139 63,249.5C 64.1124,254.828 64.779,260.162 65,265.5C 60.3541,267.398 55.5208,268.731 50.5,269.5C 49.0981,269.135 48.0981,268.301 47.5,267C 46.66,262.458 45.66,257.958 44.5,253.5C 44.968,251.866 45.968,250.7 47.5,250C 51.0382,249.465 54.3716,248.632 57.5,247.5 Z"/></g>
<g><path style="opacity:1" fill="#ea4435" d="M 29.5,255.5 C 31.1439,255.286 32.6439,255.62 34,256.5C 38.9697,266.528 35.9697,270.528 25,268.5C 23.9546,265.564 23.1212,262.564 22.5,259.5C 22.9767,258.522 23.6433,257.689 24.5,257C 26.3817,256.802 28.0484,256.302 29.5,255.5 Z"/></g>
<g><path style="opacity:1" fill="#e63227" d="M 98.5,261.5 C 103.385,260.856 106.552,262.856 108,267.5C 109.778,276.825 111.111,286.158 112,295.5C 111.215,297.286 110.049,298.786 108.5,300C 98.9289,302.319 89.2623,303.652 79.5,304C 77.6667,303.5 76.5,302.333 76,300.5C 73.7463,290.245 72.4129,279.912 72,269.5C 72.8333,268 74,266.833 75.5,266C 83.3485,264.719 91.0152,263.219 98.5,261.5 Z"/></g>
<g><path style="opacity:1" fill="#e63428" d="M 471.5,313.5 C 470.141,314.007 469.141,315.007 468.5,316.5C 467.818,315.757 467.151,315.091 466.5,314.5C 465.908,311.873 465.575,309.206 465.5,306.5C 465.261,304.533 465.594,302.699 466.5,301C 465.309,300.302 464.309,299.469 463.5,298.5C 463.5,298.167 463.5,297.833 463.5,297.5C 463.158,296.662 462.492,296.328 461.5,296.5C 454.19,295.038 446.857,293.705 439.5,292.5C 438.833,291.833 438.167,291.167 437.5,290.5C 455.984,282.345 474.484,274.012 493,265.5C 486.704,281.769 479.538,297.769 471.5,313.5 Z"/></g>
<g><path style="opacity:1" fill="#e83b2d" d="M -0.5,287.5 C -0.5,284.833 -0.5,282.167 -0.5,279.5C 4.72303,277.907 10.0564,277.074 15.5,277C 16,277.5 16.5,278 17,278.5C 18.5441,283.757 19.2108,289.09 19,294.5C 13.7698,296.899 8.26979,297.732 2.5,297C 1.42833,293.755 0.428331,290.589 -0.5,287.5 Z"/></g>
<g><path style="opacity:1" fill="#e73428" d="M 50.5,276.5 C 55.1813,275.456 58.348,277.123 60,281.5C 61.7705,289.779 62.7705,298.112 63,306.5C 61.764,308.538 59.9306,309.705 57.5,310C 50.5264,311.552 43.5264,312.552 36.5,313C 35.0692,312.535 33.9025,311.701 33,310.5C 30.8995,301.569 29.5662,292.569 29,283.5C 29.6517,281.277 31.1517,280.11 33.5,280C 39.3633,279.128 45.03,277.961 50.5,276.5 Z"/></g>
<g><path style="opacity:0.212" fill="#f6a9a4" d="M 437.5,290.5 C 438.167,291.167 438.833,291.833 439.5,292.5C 437.897,292.688 436.563,292.188 435.5,291C 436.094,290.536 436.761,290.369 437.5,290.5 Z"/></g>
<g><path style="opacity:1" fill="#f37567" d="M 463.5,298.5 C 464.309,299.469 465.309,300.302 466.5,301C 465.594,302.699 465.261,304.533 465.5,306.5C 464.469,304.039 463.802,301.373 463.5,298.5 Z"/></g>
<g><path style="opacity:0.749" fill="#5265ab" d="M 461.5,296.5 C 462.492,296.328 463.158,296.662 463.5,297.5C 458.5,301.5 453.5,305.5 448.5,309.5C 448.631,308.624 448.298,307.957 447.5,307.5C 445.929,308.309 444.262,308.643 442.5,308.5C 449.002,304.75 455.335,300.75 461.5,296.5 Z"/></g>
<g><path style="opacity:1" fill="#31519e" d="M 448.5,309.5 C 406.451,349.867 356.784,376.701 299.5,390C 260.192,398.079 222.858,392.745 187.5,374C 171.469,364.119 159.469,350.619 151.5,333.5C 175.012,326.371 198.679,319.705 222.5,313.5C 242.152,333.824 266.152,345.324 294.5,348C 305.828,348.5 317.162,348.667 328.5,348.5C 331.448,348.223 334.281,348.556 337,349.5C 338.31,348.103 339.81,347.103 341.5,346.5C 377.276,339.354 410.942,326.687 442.5,308.5C 444.262,308.643 445.929,308.309 447.5,307.5C 448.298,307.957 448.631,308.624 448.5,309.5 Z"/></g>
<g><path style="opacity:1" fill="#e73529" d="M 81.5,308.5 C 84.9612,308.146 87.4612,309.479 89,312.5C 90.3944,320.535 91.8944,328.535 93.5,336.5C 92.6994,339.133 91.0327,340.967 88.5,342C 80.5395,343.662 72.5395,344.662 64.5,345C 63.6667,344.167 62.8333,343.333 62,342.5C 60.222,333.837 58.8887,325.17 58,316.5C 58.4652,315.069 59.2986,313.903 60.5,313C 67.6259,311.485 74.6259,309.985 81.5,308.5 Z"/></g>
<g><path style="opacity:0.196" fill="#adb9d8" d="M 107.5,315.5 C 106.449,316.222 105.782,317.222 105.5,318.5C 104.596,317.791 104.263,316.791 104.5,315.5C 105.5,315.5 106.5,315.5 107.5,315.5 Z"/></g>
<g><path style="opacity:0.765" fill="#f27465" d="M 471.5,313.5 C 469.488,321.656 467.822,321.989 466.5,314.5C 467.151,315.091 467.818,315.757 468.5,316.5C 469.141,315.007 470.141,314.007 471.5,313.5 Z"/></g>
<g><path style="opacity:1" fill="#e83a2d" d="M 42.5,327.5 C 43.7206,328.028 44.8873,328.695 46,329.5C 47.8292,335.113 48.3292,340.779 47.5,346.5C 42.6061,348.205 37.6061,349.038 32.5,349C 30.9963,347.509 30.1629,345.676 30,343.5C 29.0023,339.527 28.6689,335.527 29,331.5C 33.5035,329.898 38.0035,328.565 42.5,327.5 Z"/></g>
<g><path style="opacity:0.353" fill="#95a5cd" d="M 107.5,333.5 C 107.917,336.159 108.917,338.492 110.5,340.5C 109.791,341.404 108.791,341.737 107.5,341.5C 107.5,338.833 107.5,336.167 107.5,333.5 Z"/></g>
<g><path style="opacity:1" fill="#6e80b9" d="M 341.5,346.5 C 339.81,347.103 338.31,348.103 337,349.5C 334.281,348.556 331.448,348.223 328.5,348.5C 332.639,347.437 336.972,346.77 341.5,346.5 Z"/></g>
</svg>
