<?xml version="1.0" encoding="UTF-8"?>
<!DOCTYPE svg PUBLIC "-//W3C//DTD SVG 1.1//EN" "http://www.w3.org/Graphics/SVG/1.1/DTD/svg11.dtd">
<svg xmlns="http://www.w3.org/2000/svg" version="1.1" width="70px" height="48px" style="shape-rendering:geometricPrecision; text-rendering:geometricPrecision; image-rendering:optimizeQuality; fill-rule:evenodd; clip-rule:evenodd" xmlns:xlink="http://www.w3.org/1999/xlink">
<g><path style="opacity:1" fill="#3756a1" d="M 49.5,-0.5 C 52.5,-0.5 55.5,-0.5 58.5,-0.5C 65.5399,5.1447 66.3733,11.8114 61,19.5C 57.7492,23.4217 53.9159,26.5883 49.5,29C 43.2141,31.8702 36.8807,34.5369 30.5,37C 36.7793,40.828 43.446,41.4947 50.5,39C 53.6328,38.1404 56.2995,36.6404 58.5,34.5C 59.791,34.2627 60.791,34.596 61.5,35.5C 55.1714,40.8264 48.1714,44.8264 40.5,47.5C 36.5,47.5 32.5,47.5 28.5,47.5C 24.4281,45.7924 21.0948,43.1257 18.5,39.5C 16.9291,40.3094 15.2624,40.6427 13.5,40.5C 13.366,38.7085 13.6993,37.0418 14.5,35.5C 15.1667,35.5 15.5,35.1667 15.5,34.5C 16.8333,34.1667 16.8333,33.8333 15.5,33.5C 15.5,33.1667 15.5,32.8333 15.5,32.5C 15.7373,31.209 15.404,30.209 14.5,29.5C 14.8212,27.9519 15.8212,27.2852 17.5,27.5C 18.4878,20.0326 22.1545,14.1993 28.5,10C 35.0346,5.39933 42.0346,1.89933 49.5,-0.5 Z M 48.5,8.5 C 51.0821,8.02539 53.0821,8.69206 54.5,10.5C 47.3869,17.8907 38.7202,22.3907 28.5,24C 33.2796,16.3857 39.9463,11.2191 48.5,8.5 Z"/></g>
<g><path style="opacity:0.122" fill="#7c90c1" d="M 54.5,10.5 C 53.0821,8.69206 51.0821,8.02539 48.5,8.5C 50.2646,7.53862 52.2646,7.20528 54.5,7.5C 55.2627,1.87164 55.2627,2.87164 54.5,10.5 Z"/></g>
<g><path style="opacity:0.58" fill="#ed645c" d="M 3.5,31.5 C 3.16667,31.5 2.83333,31.5 2.5,31.5C 2.28099,30.325 2.61432,29.325 3.5,28.5C 4.56236,29.4246 4.56236,30.4246 3.5,31.5 Z"/></g>
<g><path style="opacity:0.992" fill="#ec5448" d="M 61.5,35.5 C 60.791,34.596 59.791,34.2627 58.5,34.5C 57.2267,33.9232 57.2267,33.2565 58.5,32.5C 66.223,27.8888 67.5564,29.5555 62.5,37.5C 61.7025,37.0431 61.3691,36.3764 61.5,35.5 Z"/></g>
<g><path style="opacity:1" fill="#ea4d42" d="M 14.5,29.5 C 14.2627,30.791 14.596,31.791 15.5,32.5C 15.5,32.8333 15.5,33.1667 15.5,33.5C 15.5,33.8333 15.5,34.1667 15.5,34.5C 14.8333,34.5 14.5,34.8333 14.5,35.5C 13.448,35.3505 12.448,35.5172 11.5,36C 13.0347,39.7409 11.7014,41.5742 7.5,41.5C 7.16667,37.5 6.83333,37.5 6.5,41.5C 2.48713,41.4804 1.82046,40.147 4.5,37.5C 3.90174,36.2054 3.40174,34.8721 3,33.5C 1.98873,34.3366 0.822066,34.67 -0.5,34.5C -0.5,33.5 -0.5,32.5 -0.5,31.5C 0.5,31.5 1.5,31.5 2.5,31.5C 2.83333,32.8333 3.16667,32.8333 3.5,31.5C 4.55198,31.6495 5.55198,31.4828 6.5,31C 5.66337,29.9887 5.33003,28.8221 5.5,27.5C 8.33563,28.7755 11.3356,29.4422 14.5,29.5 Z"/></g>
</svg>
