<?xml version="1.0" encoding="UTF-8"?>
<svg xmlns="http://www.w3.org/2000/svg" xmlns:xlink="http://www.w3.org/1999/xlink" width="300pt" height="300pt" viewBox="0 0 300 300" version="1.1">
<g id="surface1">
<path style=" stroke:none;fill-rule:nonzero;fill:rgb(86.27451%,5.098039%,8.235294%);fill-opacity:1;" d="M 254.546875 254.109375 L 249.171875 254.109375 C 248.148438 254.109375 247.683594 252.71875 248.492188 252.019531 L 250.035156 250.683594 C 251.351562 249.542969 252.996094 248.929688 254.675781 248.929688 L 260.050781 248.929688 C 261.082031 248.929688 261.546875 250.320312 260.738281 251.019531 L 259.195312 252.347656 C 257.878906 253.488281 256.246094 254.109375 254.546875 254.109375 "/>
<path style=" stroke:none;fill-rule:nonzero;fill:rgb(86.27451%,5.098039%,8.235294%);fill-opacity:1;" d="M 261.582031 246.5625 L 256.21875 246.933594 C 255.207031 247 254.640625 245.644531 255.390625 244.898438 L 256.839844 243.460938 C 258.066406 242.234375 259.660156 241.503906 261.34375 241.390625 L 266.699219 241.011719 C 267.71875 240.9375 268.277344 242.300781 267.523438 243.042969 L 266.085938 244.480469 C 264.859375 245.71875 263.261719 246.441406 261.582031 246.5625 "/>
<path style=" stroke:none;fill-rule:nonzero;fill:rgb(86.27451%,5.098039%,8.235294%);fill-opacity:1;" d="M 268.0625 238.550781 L 262.734375 239.300781 C 261.722656 239.441406 261.074219 238.121094 261.769531 237.324219 L 263.105469 235.792969 C 264.257812 234.484375 265.789062 233.636719 267.460938 233.414062 L 272.789062 232.664062 C 273.808594 232.523438 274.449219 233.832031 273.753906 234.632812 L 272.417969 236.171875 C 271.265625 237.472656 269.742188 238.308594 268.0625 238.550781 "/>
<path style=" stroke:none;fill-rule:nonzero;fill:rgb(86.27451%,5.098039%,8.235294%);fill-opacity:1;" d="M 273.96875 230.101562 L 268.703125 231.207031 C 267.703125 231.429688 266.96875 230.15625 267.597656 229.3125 L 268.832031 227.6875 C 269.882812 226.304688 271.359375 225.359375 273.003906 225.003906 L 278.257812 223.890625 C 279.257812 223.667969 279.992188 224.941406 279.363281 225.785156 L 278.117188 227.410156 C 277.097656 228.792969 275.621094 229.738281 273.96875 230.101562 "/>
<path style=" stroke:none;fill-rule:nonzero;fill:rgb(86.27451%,5.098039%,8.235294%);fill-opacity:1;" d="M 279.269531 221.253906 L 274.105469 222.730469 C 273.113281 223.019531 272.296875 221.800781 272.863281 220.910156 L 273.988281 219.203125 C 274.933594 217.753906 276.34375 216.703125 277.960938 216.230469 L 283.132812 214.753906 C 284.125 214.46875 284.949219 215.675781 284.375 216.566406 L 283.25 218.273438 C 282.296875 219.742188 280.894531 220.789062 279.269531 221.253906 "/>
<path style=" stroke:none;fill-rule:nonzero;fill:rgb(86.27451%,5.098039%,8.235294%);fill-opacity:1;" d="M 283.9375 212.0625 L 278.898438 213.902344 C 277.921875 214.261719 277.023438 213.101562 277.542969 212.175781 L 278.535156 210.402344 C 279.390625 208.878906 280.707031 207.738281 282.296875 207.160156 L 287.347656 205.324219 C 288.320312 204.96875 289.210938 206.121094 288.710938 207.039062 L 287.707031 208.824219 C 286.863281 210.34375 285.535156 211.488281 283.9375 212.0625 "/>
<path style=" stroke:none;fill-rule:nonzero;fill:rgb(86.27451%,5.098039%,8.235294%);fill-opacity:1;" d="M 287.957031 202.566406 L 283.046875 204.757812 C 282.109375 205.175781 281.125 204.089844 281.570312 203.121094 L 282.445312 201.285156 C 283.1875 199.707031 284.429688 198.472656 285.972656 197.792969 L 290.875 195.613281 C 291.820312 195.195312 292.804688 196.28125 292.351562 197.238281 L 291.476562 199.085938 C 290.742188 200.652344 289.5 201.878906 287.957031 202.566406 "/>
<path style=" stroke:none;fill-rule:nonzero;fill:rgb(86.27451%,5.098039%,8.235294%);fill-opacity:1;" d="M 291.308594 192.816406 L 286.558594 195.34375 C 285.65625 195.824219 284.589844 194.804688 284.980469 193.828125 L 285.710938 191.925781 C 286.351562 190.300781 287.496094 188.984375 288.988281 188.195312 L 293.734375 185.667969 C 294.632812 185.1875 295.703125 186.199219 295.3125 187.191406 L 294.585938 189.09375 C 293.957031 190.710938 292.804688 192.027344 291.308594 192.816406 "/>
<path style=" stroke:none;fill-rule:nonzero;fill:rgb(86.27451%,5.098039%,8.235294%);fill-opacity:1;" d="M 293.976562 182.855469 L 289.417969 185.707031 C 288.542969 186.253906 287.421875 185.308594 287.726562 184.292969 L 288.332031 182.34375 C 288.839844 180.683594 289.910156 179.289062 291.339844 178.390625 L 295.898438 175.550781 C 296.769531 174.992188 297.902344 175.929688 297.578125 176.949219 L 296.984375 178.890625 C 296.460938 180.570312 295.40625 181.964844 293.976562 182.855469 "/>
<path style=" stroke:none;fill-rule:nonzero;fill:rgb(86.27451%,5.098039%,8.235294%);fill-opacity:1;" d="M 295.925781 172.726562 L 291.578125 175.882812 C 290.742188 176.488281 289.566406 175.632812 289.796875 174.601562 L 290.261719 172.617188 C 290.652344 170.917969 291.617188 169.460938 292.992188 168.464844 L 297.335938 165.308594 C 298.171875 164.707031 299.351562 165.570312 299.109375 166.601562 L 298.644531 168.585938 C 298.253906 170.285156 297.289062 171.742188 295.925781 172.726562 "/>
<path style=" stroke:none;fill-rule:nonzero;fill:rgb(86.27451%,5.098039%,8.235294%);fill-opacity:1;" d="M 297.175781 162.503906 L 293.066406 165.949219 C 292.265625 166.617188 291.023438 165.839844 291.199219 164.789062 L 291.523438 162.785156 C 291.800781 161.066406 292.65625 159.535156 293.945312 158.449219 L 298.070312 154.996094 C 298.867188 154.335938 300.101562 155.105469 299.933594 156.144531 L 299.621094 158.160156 C 299.332031 159.898438 298.46875 161.417969 297.175781 162.503906 "/>
<path style=" stroke:none;fill-rule:nonzero;fill:rgb(86.27451%,5.098039%,8.235294%);fill-opacity:1;" d="M 297.707031 152.210938 L 293.835938 155.941406 C 293.09375 156.65625 291.800781 155.96875 291.894531 154.921875 L 292.070312 152.886719 C 292.230469 151.160156 292.972656 149.5625 294.199219 148.394531 L 298.058594 144.660156 C 298.800781 143.945312 300.101562 144.632812 300 145.691406 L 299.824219 147.726562 C 299.664062 149.441406 298.921875 151.039062 297.707031 152.210938 "/>
<path style=" stroke:none;fill-rule:nonzero;fill:rgb(86.27451%,5.098039%,8.235294%);fill-opacity:1;" d="M 297.511719 141.894531 L 293.917969 145.886719 C 293.222656 146.648438 291.894531 146.0625 291.914062 145.003906 L 291.949219 142.960938 C 291.988281 141.226562 292.621094 139.601562 293.75 138.339844 L 297.34375 134.347656 C 298.042969 133.585938 299.378906 134.179688 299.351562 135.238281 L 299.3125 137.273438 C 299.277344 139.015625 298.636719 140.640625 297.511719 141.894531 "/>
<path style=" stroke:none;fill-rule:nonzero;fill:rgb(86.27451%,5.098039%,8.235294%);fill-opacity:1;" d="M 296.601562 131.636719 L 293.296875 135.859375 C 292.664062 136.6875 291.28125 136.1875 291.226562 135.128906 L 291.125 133.085938 C 291.042969 131.359375 291.5625 129.675781 292.601562 128.351562 L 295.914062 124.125 C 296.554688 123.308594 297.921875 123.800781 297.976562 124.859375 L 298.078125 126.902344 C 298.160156 128.636719 297.640625 130.300781 296.601562 131.636719 "/>
<path style=" stroke:none;fill-rule:nonzero;fill:rgb(86.27451%,5.098039%,8.235294%);fill-opacity:1;" d="M 294.988281 121.453125 L 291.980469 125.898438 C 291.402344 126.761719 289.992188 126.355469 289.863281 125.304688 L 289.621094 123.28125 C 289.417969 121.554688 289.816406 119.847656 290.761719 118.445312 L 293.769531 113.996094 C 294.347656 113.132812 295.757812 113.53125 295.878906 114.589844 L 296.128906 116.613281 C 296.324219 118.351562 295.914062 120.050781 294.988281 121.453125 "/>
<path style=" stroke:none;fill-rule:nonzero;fill:rgb(86.27451%,5.098039%,8.235294%);fill-opacity:1;" d="M 292.648438 111.417969 L 289.964844 116.058594 C 289.445312 116.949219 288.003906 116.644531 287.808594 115.613281 L 287.421875 113.605469 C 287.09375 111.90625 287.382812 110.171875 288.226562 108.714844 L 290.910156 104.074219 C 291.421875 103.171875 292.859375 103.476562 293.054688 104.519531 L 293.445312 106.523438 C 293.769531 108.214844 293.484375 109.949219 292.648438 111.417969 "/>
<path style=" stroke:none;fill-rule:nonzero;fill:rgb(86.27451%,5.098039%,8.235294%);fill-opacity:1;" d="M 289.621094 101.546875 L 287.261719 106.382812 C 286.816406 107.292969 285.351562 107.097656 285.097656 106.078125 L 284.570312 104.109375 C 284.117188 102.429688 284.28125 100.683594 285.015625 99.160156 L 287.375 94.332031 C 287.820312 93.40625 289.285156 93.609375 289.546875 94.621094 L 290.066406 96.597656 C 290.519531 98.289062 290.355469 100.035156 289.621094 101.546875 "/>
<path style=" stroke:none;fill-rule:nonzero;fill:rgb(86.27451%,5.098039%,8.235294%);fill-opacity:1;" d="M 285.917969 91.929688 L 283.902344 96.914062 C 283.511719 97.863281 282.054688 97.769531 281.71875 96.757812 L 281.050781 94.835938 C 280.484375 93.191406 280.523438 91.4375 281.164062 89.867188 L 283.175781 84.882812 C 283.566406 83.925781 285.035156 84.019531 285.367188 85.03125 L 286.027344 86.960938 C 286.585938 88.613281 286.546875 90.371094 285.917969 91.929688 "/>
<path style=" stroke:none;fill-rule:nonzero;fill:rgb(86.27451%,5.098039%,8.235294%);fill-opacity:1;" d="M 281.554688 82.589844 L 279.882812 87.703125 C 279.574219 88.679688 278.109375 88.6875 277.691406 87.714844 L 276.902344 85.839844 C 276.222656 84.242188 276.148438 82.488281 276.660156 80.882812 L 278.320312 75.765625 C 278.648438 74.78125 280.105469 74.78125 280.511719 75.765625 L 281.3125 77.632812 C 281.988281 79.238281 282.074219 80.984375 281.554688 82.589844 "/>
<path style=" stroke:none;fill-rule:nonzero;fill:rgb(86.27451%,5.098039%,8.235294%);fill-opacity:1;" d="M 276.539062 73.585938 L 275.238281 78.792969 C 275 79.796875 273.53125 79.90625 273.058594 78.949219 L 272.128906 77.121094 C 271.339844 75.570312 271.144531 73.835938 271.542969 72.199219 L 272.84375 66.992188 C 273.09375 65.988281 274.5625 65.886719 275.035156 66.835938 L 275.953125 68.65625 C 276.742188 70.203125 276.949219 71.949219 276.539062 73.585938 "/>
<path style=" stroke:none;fill-rule:nonzero;fill:rgb(86.27451%,5.098039%,8.235294%);fill-opacity:1;" d="M 270.914062 64.941406 L 269.976562 70.234375 C 269.800781 71.246094 268.34375 71.457031 267.804688 70.546875 L 266.753906 68.792969 C 265.871094 67.300781 265.539062 65.570312 265.835938 63.910156 L 266.761719 58.617188 C 266.949219 57.605469 268.386719 57.402344 268.9375 58.304688 L 269.976562 60.058594 C 270.867188 61.5625 271.203125 63.277344 270.914062 64.941406 "/>
<path style=" stroke:none;fill-rule:nonzero;fill:rgb(86.27451%,5.098039%,8.235294%);fill-opacity:1;" d="M 264.691406 56.726562 L 264.128906 62.0625 C 264.023438 63.085938 262.59375 63.398438 261.984375 62.527344 L 260.820312 60.855469 C 259.828125 59.425781 259.382812 57.738281 259.550781 56.066406 L 260.117188 50.726562 C 260.226562 49.695312 261.65625 49.390625 262.25 50.261719 L 263.421875 51.945312 C 264.433594 53.34375 264.878906 55.035156 264.691406 56.726562 "/>
<path style=" stroke:none;fill-rule:nonzero;fill:rgb(86.27451%,5.098039%,8.235294%);fill-opacity:1;" d="M 257.917969 48.933594 L 257.730469 54.300781 C 257.703125 55.332031 256.292969 55.742188 255.621094 54.914062 L 254.351562 53.328125 C 253.246094 51.972656 252.6875 50.320312 252.753906 48.628906 L 252.941406 43.261719 C 252.976562 42.234375 254.378906 41.824219 255.046875 42.660156 L 256.328125 44.238281 C 257.414062 45.59375 257.980469 47.253906 257.917969 48.933594 "/>
<path style=" stroke:none;fill-rule:nonzero;fill:rgb(86.27451%,5.098039%,8.235294%);fill-opacity:1;" d="M 250.617188 41.65625 L 250.804688 47.03125 C 250.839844 48.0625 249.46875 48.5625 248.742188 47.792969 L 247.351562 46.296875 C 246.171875 45.027344 245.496094 43.410156 245.429688 41.722656 L 245.242188 36.347656 C 245.226562 35.324219 246.589844 34.816406 247.324219 35.59375 L 248.707031 37.089844 C 249.886719 38.351562 250.5625 39.976562 250.617188 41.65625 "/>
<path style=" stroke:none;fill-rule:nonzero;fill:rgb(86.27451%,5.098039%,8.235294%);fill-opacity:1;" d="M 242.839844 34.90625 L 243.40625 40.246094 C 243.507812 41.265625 242.179688 41.871094 241.398438 41.144531 L 239.90625 39.753906 C 238.632812 38.566406 237.855469 36.996094 237.667969 35.316406 L 237.101562 29.976562 C 236.988281 28.957031 238.335938 28.363281 239.105469 29.078125 L 240.601562 30.480469 C 241.875 31.667969 242.652344 33.226562 242.839844 34.90625 "/>
<path style=" stroke:none;fill-rule:nonzero;fill:rgb(86.27451%,5.098039%,8.235294%);fill-opacity:1;" d="M 234.59375 28.707031 L 235.523438 33.996094 C 235.699219 35.019531 234.410156 35.707031 233.574219 35.027344 L 231.996094 33.746094 C 230.648438 32.640625 229.757812 31.148438 229.460938 29.476562 L 228.53125 24.183594 C 228.347656 23.164062 229.648438 22.476562 230.464844 23.144531 L 232.050781 24.433594 C 233.40625 25.539062 234.289062 27.054688 234.59375 28.707031 "/>
<path style=" stroke:none;fill-rule:nonzero;fill:rgb(86.27451%,5.098039%,8.235294%);fill-opacity:1;" d="M 225.933594 23.109375 L 227.234375 28.316406 C 227.484375 29.320312 226.238281 30.097656 225.367188 29.484375 L 223.703125 28.304688 C 222.285156 27.3125 221.273438 25.863281 220.875 24.242188 L 219.5625 19.023438 C 219.324219 18.019531 220.558594 17.25 221.429688 17.851562 L 223.09375 19.023438 C 224.523438 20.035156 225.523438 21.472656 225.933594 23.109375 "/>
<path style=" stroke:none;fill-rule:nonzero;fill:rgb(86.27451%,5.098039%,8.235294%);fill-opacity:1;" d="M 216.910156 18.113281 L 218.570312 23.21875 C 218.886719 24.203125 217.699219 25.066406 216.796875 24.519531 L 215.050781 23.460938 C 213.566406 22.558594 212.472656 21.203125 211.953125 19.589844 L 210.289062 14.484375 C 209.972656 13.5 211.152344 12.636719 212.0625 13.191406 L 213.808594 14.25 C 215.285156 15.140625 216.390625 16.507812 216.910156 18.113281 "/>
<path style=" stroke:none;fill-rule:nonzero;fill:rgb(86.27451%,5.098039%,8.235294%);fill-opacity:1;" d="M 207.558594 13.777344 L 209.574219 18.753906 C 209.964844 19.710938 208.839844 20.65625 207.886719 20.175781 L 206.085938 19.246094 C 204.523438 18.457031 203.34375 17.164062 202.714844 15.597656 L 200.699219 10.621094 C 200.308594 9.664062 201.421875 8.71875 202.371094 9.199219 L 204.191406 10.136719 C 205.742188 10.917969 206.917969 12.207031 207.558594 13.777344 "/>
<path style=" stroke:none;fill-rule:nonzero;fill:rgb(86.27451%,5.098039%,8.235294%);fill-opacity:1;" d="M 197.921875 10.089844 L 200.28125 14.917969 C 200.738281 15.847656 199.6875 16.859375 198.710938 16.449219 L 196.835938 15.644531 C 195.242188 14.957031 193.960938 13.769531 193.226562 12.234375 L 190.867188 7.410156 C 190.421875 6.488281 191.460938 5.46875 192.445312 5.875 L 194.320312 6.683594 C 195.910156 7.371094 197.191406 8.570312 197.921875 10.089844 "/>
<path style=" stroke:none;fill-rule:nonzero;fill:rgb(86.27451%,5.098039%,8.235294%);fill-opacity:1;" d="M 188.0625 7.082031 L 190.757812 11.734375 C 191.265625 12.625 190.300781 13.722656 189.289062 13.367188 L 187.367188 12.699219 C 185.722656 12.132812 184.359375 11.019531 183.523438 9.5625 L 180.832031 4.910156 C 180.3125 4.011719 181.296875 2.925781 182.296875 3.269531 L 184.21875 3.945312 C 185.863281 4.511719 187.210938 5.617188 188.0625 7.082031 "/>
<path style=" stroke:none;fill-rule:nonzero;fill:rgb(86.27451%,5.098039%,8.235294%);fill-opacity:1;" d="M 178.007812 4.773438 L 181.015625 9.21875 C 181.59375 10.082031 180.683594 11.234375 179.671875 10.953125 L 177.703125 10.425781 C 176.023438 9.972656 174.59375 8.957031 173.644531 7.558594 L 170.636719 3.101562 C 170.0625 2.246094 170.953125 1.09375 171.984375 1.363281 L 173.960938 1.902344 C 175.632812 2.367188 177.070312 3.371094 178.007812 4.773438 "/>
<path style=" stroke:none;fill-rule:nonzero;fill:rgb(86.27451%,5.098039%,8.235294%);fill-opacity:1;" d="M 167.816406 3.164062 L 171.121094 7.398438 C 171.753906 8.214844 170.945312 9.433594 169.894531 9.21875 L 167.898438 8.828125 C 166.183594 8.496094 164.695312 7.585938 163.648438 6.25 L 160.34375 2.015625 C 159.703125 1.207031 160.519531 0 161.558594 0.195312 L 163.554688 0.59375 C 165.28125 0.929688 166.777344 1.839844 167.816406 3.164062 "/>
<path style=" stroke:none;fill-rule:nonzero;fill:rgb(86.27451%,5.098039%,8.235294%);fill-opacity:1;" d="M 157.546875 2.285156 L 161.140625 6.277344 C 161.828125 7.039062 161.105469 8.308594 160.046875 8.167969 L 158.03125 7.929688 C 156.292969 7.707031 154.734375 6.90625 153.613281 5.652344 L 150.019531 1.652344 C 149.332031 0.882812 150.054688 -0.371094 151.113281 -0.242188 L 153.136719 0.0078125 C 154.863281 0.214844 156.414062 1.03125 157.546875 2.285156 "/>
<path style=" stroke:none;fill-rule:nonzero;fill:rgb(86.27451%,5.098039%,8.235294%);fill-opacity:1;" d="M 147.234375 2.109375 L 151.105469 5.839844 C 151.839844 6.554688 151.207031 7.863281 150.140625 7.808594 L 148.105469 7.6875 C 146.371094 7.59375 144.765625 6.90625 143.546875 5.738281 L 139.675781 2.003906 C 138.933594 1.289062 139.574219 -0.0273438 140.632812 0.0273438 L 142.664062 0.148438 C 144.421875 0.25 146.027344 0.9375 147.234375 2.109375 "/>
<path style=" stroke:none;fill-rule:nonzero;fill:rgb(86.27451%,5.098039%,8.235294%);fill-opacity:1;" d="M 136.9375 2.664062 L 141.050781 6.128906 C 141.839844 6.777344 141.292969 8.132812 140.234375 8.152344 L 138.191406 8.179688 C 136.453125 8.214844 134.792969 7.632812 133.511719 6.546875 L 129.390625 3.101562 C 128.589844 2.433594 129.140625 1.078125 130.199219 1.066406 L 132.238281 1.039062 C 133.996094 1.003906 135.648438 1.585938 136.9375 2.664062 "/>
<path style=" stroke:none;fill-rule:nonzero;fill:rgb(86.27451%,5.098039%,8.235294%);fill-opacity:1;" d="M 126.707031 3.9375 L 131.050781 7.082031 C 131.878906 7.6875 131.433594 9.089844 130.375 9.171875 L 128.339844 9.339844 C 126.613281 9.488281 124.90625 9.023438 123.550781 8.039062 L 119.207031 4.882812 C 118.371094 4.28125 118.816406 2.878906 119.882812 2.785156 L 121.90625 2.617188 C 123.652344 2.480469 125.332031 2.933594 126.707031 3.9375 "/>
<path style=" stroke:none;fill-rule:nonzero;fill:rgb(86.27451%,5.098039%,8.235294%);fill-opacity:1;" d="M 116.578125 5.90625 L 121.136719 8.746094 C 122 9.300781 121.664062 10.714844 120.617188 10.878906 L 118.601562 11.195312 C 116.882812 11.464844 115.167969 11.132812 113.726562 10.222656 L 109.167969 7.378906 C 108.296875 6.832031 108.648438 5.414062 109.6875 5.246094 L 111.703125 4.9375 C 113.429688 4.667969 115.148438 5.011719 116.578125 5.90625 "/>
<path style=" stroke:none;fill-rule:nonzero;fill:rgb(86.27451%,5.098039%,8.235294%);fill-opacity:1;" d="M 106.625 8.585938 L 111.371094 11.105469 C 112.269531 11.605469 112.027344 13.035156 110.988281 13.265625 L 109.003906 13.722656 C 107.292969 14.113281 105.558594 13.890625 104.082031 13.089844 L 99.335938 10.574219 C 98.429688 10.089844 98.679688 8.644531 99.71875 8.421875 L 101.707031 7.957031 C 103.394531 7.566406 105.132812 7.796875 106.625 8.585938 "/>
<path style=" stroke:none;fill-rule:nonzero;fill:rgb(86.27451%,5.098039%,8.235294%);fill-opacity:1;" d="M 96.867188 11.957031 L 101.78125 14.128906 C 102.71875 14.558594 102.578125 16.015625 101.566406 16.320312 L 99.605469 16.90625 C 97.945312 17.40625 96.191406 17.316406 94.648438 16.628906 L 89.738281 14.445312 C 88.800781 14.019531 88.949219 12.570312 89.960938 12.253906 L 91.910156 11.660156 C 93.582031 11.167969 95.328125 11.261719 96.867188 11.957031 "/>
<path style=" stroke:none;fill-rule:nonzero;fill:rgb(86.27451%,5.098039%,8.235294%);fill-opacity:1;" d="M 87.390625 15.988281 L 92.441406 17.824219 C 93.40625 18.179688 93.367188 19.644531 92.375 20.015625 L 90.460938 20.742188 C 88.847656 21.363281 87.082031 21.390625 85.496094 20.804688 L 80.453125 18.96875 C 79.488281 18.613281 79.535156 17.148438 80.519531 16.777344 L 82.433594 16.050781 C 84.046875 15.4375 85.800781 15.421875 87.390625 15.988281 "/>
<path style=" stroke:none;fill-rule:nonzero;fill:rgb(86.27451%,5.098039%,8.235294%);fill-opacity:1;" d="M 78.207031 20.683594 L 83.371094 22.171875 C 84.363281 22.449219 84.417969 23.914062 83.460938 24.359375 L 81.605469 25.214844 C 80.027344 25.9375 78.28125 26.085938 76.667969 25.632812 L 71.484375 24.148438 C 70.5 23.859375 70.445312 22.402344 71.410156 21.945312 L 73.269531 21.09375 C 74.835938 20.359375 76.582031 20.21875 78.207031 20.683594 "/>
<path style=" stroke:none;fill-rule:nonzero;fill:rgb(86.27451%,5.098039%,8.235294%);fill-opacity:1;" d="M 69.371094 25.996094 L 74.632812 27.117188 C 75.636719 27.332031 75.792969 28.78125 74.867188 29.300781 L 73.082031 30.285156 C 71.558594 31.121094 69.824219 31.390625 68.179688 31.035156 L 62.925781 29.914062 C 61.921875 29.699219 61.757812 28.242188 62.683594 27.730469 L 64.484375 26.746094 C 65.988281 25.921875 67.714844 25.652344 69.371094 25.996094 "/>
<path style=" stroke:none;fill-rule:nonzero;fill:rgb(86.27451%,5.098039%,8.235294%);fill-opacity:1;" d="M 60.929688 31.925781 L 66.25 32.671875 C 67.269531 32.820312 67.539062 34.25 66.640625 34.824219 L 64.921875 35.929688 C 63.464844 36.875 61.757812 37.257812 60.085938 37.023438 L 54.757812 36.28125 C 53.734375 36.132812 53.484375 34.695312 54.367188 34.128906 L 56.074219 33.011719 C 57.550781 32.074219 59.25 31.6875 60.929688 31.925781 "/>
<path style=" stroke:none;fill-rule:nonzero;fill:rgb(86.27451%,5.098039%,8.235294%);fill-opacity:1;" d="M 52.917969 38.425781 L 58.273438 38.796875 C 59.304688 38.863281 59.667969 40.292969 58.8125 40.921875 L 57.179688 42.140625 C 55.796875 43.1875 54.117188 43.691406 52.433594 43.578125 L 47.078125 43.207031 C 46.046875 43.132812 45.6875 41.710938 46.539062 41.070312 L 48.164062 39.847656 C 49.546875 38.808594 51.238281 38.296875 52.917969 38.425781 "/>
<path style=" stroke:none;fill-rule:nonzero;fill:rgb(86.27451%,5.098039%,8.235294%);fill-opacity:1;" d="M 45.378906 45.445312 L 50.753906 45.445312 C 51.777344 45.445312 52.242188 46.847656 51.433594 47.542969 L 49.890625 48.871094 C 48.574219 50.011719 46.9375 50.625 45.25 50.625 L 39.882812 50.625 C 38.851562 50.625 38.390625 49.222656 39.195312 48.535156 L 40.738281 47.207031 C 42.054688 46.074219 43.691406 45.445312 45.378906 45.445312 "/>
<path style=" stroke:none;fill-rule:nonzero;fill:rgb(86.27451%,5.098039%,8.235294%);fill-opacity:1;" d="M 38.359375 53 L 43.726562 52.628906 C 44.75 52.554688 45.304688 53.921875 44.5625 54.664062 L 43.105469 56.101562 C 41.878906 57.328125 40.28125 58.0625 38.601562 58.171875 L 33.238281 58.554688 C 32.214844 58.617188 31.65625 57.261719 32.410156 56.519531 L 33.847656 55.082031 C 35.082031 53.847656 36.671875 53.121094 38.359375 53 "/>
<path style=" stroke:none;fill-rule:nonzero;fill:rgb(86.27451%,5.098039%,8.235294%);fill-opacity:1;" d="M 31.882812 61.015625 L 37.199219 60.269531 C 38.210938 60.121094 38.863281 61.441406 38.167969 62.238281 L 36.828125 63.769531 C 35.679688 65.082031 34.144531 65.925781 32.476562 66.15625 L 27.15625 66.910156 C 26.132812 67.046875 25.484375 65.738281 26.179688 64.929688 L 27.527344 63.398438 C 28.667969 62.101562 30.199219 61.246094 31.882812 61.015625 "/>
<path style=" stroke:none;fill-rule:nonzero;fill:rgb(86.27451%,5.098039%,8.235294%);fill-opacity:1;" d="M 25.96875 69.472656 L 31.222656 68.355469 C 32.234375 68.144531 32.96875 69.40625 32.328125 70.25 L 31.101562 71.875 C 30.050781 73.257812 28.574219 74.207031 26.921875 74.558594 L 21.667969 75.671875 C 20.664062 75.894531 19.933594 74.625 20.5625 73.789062 L 21.808594 72.164062 C 22.847656 70.761719 24.324219 69.816406 25.96875 69.472656 "/>
<path style=" stroke:none;fill-rule:nonzero;fill:rgb(86.27451%,5.098039%,8.235294%);fill-opacity:1;" d="M 20.664062 78.308594 L 25.828125 76.824219 C 26.820312 76.546875 27.648438 77.761719 27.0625 78.644531 L 25.9375 80.363281 C 24.992188 81.820312 23.589844 82.867188 21.964844 83.332031 L 16.804688 84.808594 C 15.820312 85.097656 14.992188 83.878906 15.570312 82.988281 L 16.691406 81.28125 C 17.640625 79.824219 19.042969 78.773438 20.664062 78.308594 "/>
<path style=" stroke:none;fill-rule:nonzero;fill:rgb(86.27451%,5.098039%,8.235294%);fill-opacity:1;" d="M 15.996094 87.5 L 21.046875 85.671875 C 22.011719 85.320312 22.914062 86.46875 22.402344 87.398438 L 21.410156 89.179688 C 20.554688 90.703125 19.234375 91.84375 17.648438 92.410156 L 12.597656 94.257812 C 11.632812 94.613281 10.722656 93.460938 11.234375 92.53125 L 12.234375 90.75 C 13.082031 89.21875 14.410156 88.078125 15.996094 87.5 "/>
<path style=" stroke:none;fill-rule:nonzero;fill:rgb(86.27451%,5.098039%,8.235294%);fill-opacity:1;" d="M 11.976562 96.988281 L 16.878906 94.816406 C 17.824219 94.390625 18.800781 95.476562 18.355469 96.449219 L 17.480469 98.289062 C 16.75 99.867188 15.496094 101.09375 13.953125 101.78125 L 9.042969 103.960938 C 8.105469 104.378906 7.121094 103.292969 7.574219 102.335938 L 8.4375 100.488281 C 9.191406 98.910156 10.433594 97.683594 11.976562 96.988281 "/>
<path style=" stroke:none;fill-rule:nonzero;fill:rgb(86.27451%,5.098039%,8.235294%);fill-opacity:1;" d="M 8.625 106.746094 L 13.378906 104.222656 C 14.277344 103.738281 15.347656 104.757812 14.964844 105.742188 L 14.230469 107.648438 C 13.601562 109.261719 12.449219 110.582031 10.953125 111.371094 L 6.21875 113.894531 C 5.308594 114.378906 4.242188 113.367188 4.640625 112.382812 L 5.367188 110.476562 C 5.988281 108.863281 7.140625 107.542969 8.625 106.746094 "/>
<path style=" stroke:none;fill-rule:nonzero;fill:rgb(86.27451%,5.098039%,8.235294%);fill-opacity:1;" d="M 5.96875 116.707031 L 10.527344 113.859375 C 11.402344 113.320312 12.523438 114.257812 12.21875 115.269531 L 11.613281 117.21875 C 11.09375 118.878906 10.035156 120.273438 8.605469 121.171875 L 4.039062 124.015625 C 3.175781 124.570312 2.042969 123.632812 2.359375 122.613281 L 2.953125 120.671875 C 3.472656 119 4.539062 117.597656 5.96875 116.707031 "/>
<path style=" stroke:none;fill-rule:nonzero;fill:rgb(86.27451%,5.098039%,8.235294%);fill-opacity:1;" d="M 4.011719 126.828125 L 8.363281 123.671875 C 9.199219 123.066406 10.390625 123.929688 10.148438 124.960938 L 9.683594 126.949219 C 9.285156 128.636719 8.328125 130.105469 6.964844 131.105469 L 2.617188 134.265625 C 1.78125 134.875 0.601562 134.011719 0.84375 132.984375 L 1.300781 130.996094 C 1.691406 129.289062 2.644531 127.828125 4.011719 126.828125 "/>
<path style=" stroke:none;fill-rule:nonzero;fill:rgb(86.27451%,5.098039%,8.235294%);fill-opacity:1;" d="M 2.757812 137.058594 L 6.878906 133.605469 C 7.667969 132.945312 8.914062 133.726562 8.746094 134.765625 L 8.421875 136.769531 C 8.152344 138.496094 7.289062 140.019531 5.996094 141.105469 L 1.875 144.550781 C 1.09375 145.210938 -0.15625 144.449219 0.0078125 143.398438 L 0.324219 141.382812 C 0.613281 139.675781 1.46875 138.144531 2.757812 137.058594 "/>
<path style=" stroke:none;fill-rule:nonzero;fill:rgb(86.27451%,5.098039%,8.235294%);fill-opacity:1;" d="M 2.238281 147.363281 L 6.097656 143.632812 C 6.84375 142.925781 8.132812 143.601562 8.039062 144.660156 L 7.863281 146.695312 C 7.707031 148.421875 6.953125 150.007812 5.738281 151.179688 L 1.867188 154.910156 C 1.132812 155.625 -0.167969 154.9375 -0.0664062 153.890625 L 0.121094 151.855469 C 0.269531 150.121094 1.011719 148.53125 2.238281 147.363281 "/>
<path style=" stroke:none;fill-rule:nonzero;fill:rgb(86.27451%,5.098039%,8.235294%);fill-opacity:1;" d="M 2.421875 157.667969 L 6.015625 153.675781 C 6.703125 152.925781 8.039062 153.507812 8.019531 154.558594 L 7.976562 156.601562 C 7.945312 158.328125 7.316406 159.972656 6.171875 161.222656 L 2.582031 165.214844 C 1.894531 165.988281 0.558594 165.382812 0.574219 164.335938 L 0.613281 162.292969 C 0.660156 160.546875 1.289062 158.921875 2.421875 157.667969 "/>
<path style=" stroke:none;fill-rule:nonzero;fill:rgb(86.27451%,5.098039%,8.235294%);fill-opacity:1;" d="M 3.332031 167.9375 L 6.636719 163.703125 C 7.277344 162.894531 8.644531 163.386719 8.707031 164.4375 L 8.820312 166.488281 C 8.894531 168.214844 8.382812 169.894531 7.34375 171.222656 L 4.039062 175.457031 C 3.40625 176.265625 2.023438 175.761719 1.96875 174.714844 L 1.855469 172.671875 C 1.773438 170.933594 2.292969 169.253906 3.332031 167.9375 "/>
<path style=" stroke:none;fill-rule:nonzero;fill:rgb(86.27451%,5.098039%,8.235294%);fill-opacity:1;" d="M 4.96875 178.121094 L 7.976562 173.675781 C 8.550781 172.808594 9.960938 173.210938 10.082031 174.269531 L 10.332031 176.292969 C 10.539062 178.019531 10.136719 179.71875 9.191406 181.121094 L 6.183594 185.566406 C 5.609375 186.429688 4.195312 186.023438 4.074219 184.972656 L 3.835938 182.957031 C 3.613281 181.222656 4.019531 179.523438 4.96875 178.121094 "/>
<path style=" stroke:none;fill-rule:nonzero;fill:rgb(86.27451%,5.098039%,8.235294%);fill-opacity:1;" d="M 7.289062 188.15625 L 9.972656 183.503906 C 10.492188 182.613281 11.929688 182.921875 12.125 183.960938 L 12.515625 185.964844 C 12.832031 187.675781 12.5625 189.402344 11.707031 190.859375 L 9.023438 195.507812 C 8.503906 196.402344 7.074219 196.09375 6.871094 195.0625 L 6.488281 193.058594 C 6.164062 191.351562 6.453125 189.625 7.289062 188.15625 "/>
<path style=" stroke:none;fill-rule:nonzero;fill:rgb(86.27451%,5.098039%,8.235294%);fill-opacity:1;" d="M 10.3125 198.015625 L 12.671875 193.179688 C 13.117188 192.269531 14.574219 192.464844 14.84375 193.484375 L 15.363281 195.464844 C 15.820312 197.144531 15.652344 198.878906 14.917969 200.410156 L 12.5625 205.238281 C 12.117188 206.167969 10.648438 205.953125 10.378906 204.941406 L 9.859375 202.972656 C 9.414062 201.273438 9.570312 199.539062 10.3125 198.015625 "/>
<path style=" stroke:none;fill-rule:nonzero;fill:rgb(86.27451%,5.098039%,8.235294%);fill-opacity:1;" d="M 14.027344 207.632812 L 16.035156 202.660156 C 16.421875 201.691406 17.890625 201.792969 18.222656 202.796875 L 18.882812 204.730469 C 19.449219 206.371094 19.402344 208.125 18.773438 209.695312 L 16.765625 214.671875 C 16.386719 215.628906 14.917969 215.535156 14.585938 214.523438 L 13.917969 212.601562 C 13.359375 210.949219 13.398438 209.203125 14.027344 207.632812 "/>
<path style=" stroke:none;fill-rule:nonzero;fill:rgb(86.27451%,5.098039%,8.235294%);fill-opacity:1;" d="M 18.390625 216.972656 L 20.054688 211.867188 C 20.367188 210.875 21.828125 210.875 22.246094 211.859375 L 23.035156 213.734375 C 23.710938 215.320312 23.792969 217.085938 23.273438 218.691406 L 21.613281 223.796875 C 21.296875 224.78125 19.832031 224.78125 19.421875 223.808594 L 18.632812 221.933594 C 17.953125 220.324219 17.871094 218.582031 18.390625 216.972656 "/>
<path style=" stroke:none;fill-rule:nonzero;fill:rgb(86.27451%,5.098039%,8.235294%);fill-opacity:1;" d="M 23.394531 225.980469 L 24.695312 220.769531 C 24.9375 219.769531 26.414062 219.65625 26.886719 220.613281 L 27.816406 222.421875 C 28.59375 223.984375 28.796875 225.71875 28.390625 227.351562 L 27.082031 232.570312 C 26.832031 233.5625 25.371094 233.667969 24.898438 232.71875 L 23.980469 230.898438 C 23.199219 229.367188 22.988281 227.621094 23.394531 225.980469 "/>
<path style=" stroke:none;fill-rule:nonzero;fill:rgb(86.27451%,5.098039%,8.235294%);fill-opacity:1;" d="M 29.019531 234.621094 L 29.960938 229.332031 C 30.136719 228.320312 31.582031 228.105469 32.132812 229.015625 L 33.179688 230.769531 C 34.070312 232.265625 34.398438 233.992188 34.101562 235.644531 L 33.171875 240.9375 C 32.984375 241.957031 31.539062 242.160156 30.988281 241.25 L 29.949219 239.496094 C 29.066406 238.003906 28.734375 236.285156 29.019531 234.621094 "/>
<path style=" stroke:none;fill-rule:nonzero;fill:rgb(86.27451%,5.098039%,8.235294%);fill-opacity:1;" d="M 35.230469 242.847656 L 35.796875 237.511719 C 35.910156 236.488281 37.332031 236.171875 37.941406 237.046875 L 39.105469 238.726562 C 40.105469 240.15625 40.542969 241.84375 40.367188 243.527344 L 39.800781 248.863281 C 39.699219 249.886719 38.257812 250.191406 37.65625 249.320312 L 36.496094 247.648438 C 35.511719 246.21875 35.066406 244.519531 35.230469 242.847656 "/>
<path style=" stroke:none;fill-rule:nonzero;fill:rgb(86.27451%,5.098039%,8.235294%);fill-opacity:1;" d="M 42.019531 250.628906 L 42.203125 245.261719 C 42.242188 244.230469 43.644531 243.824219 44.3125 244.648438 L 45.601562 246.238281 C 46.6875 247.59375 47.253906 249.246094 47.191406 250.933594 L 47.003906 256.300781 C 46.976562 257.320312 45.566406 257.738281 44.898438 256.902344 L 43.617188 255.316406 C 42.519531 253.96875 41.953125 252.308594 42.019531 250.628906 "/>
<path style=" stroke:none;fill-rule:nonzero;fill:rgb(86.27451%,5.098039%,8.235294%);fill-opacity:1;" d="M 49.316406 257.917969 L 49.128906 252.539062 C 49.113281 251.511719 50.476562 251.007812 51.191406 251.789062 L 52.585938 253.285156 C 53.761719 254.554688 54.441406 256.171875 54.503906 257.859375 L 54.691406 263.226562 C 54.71875 264.257812 53.355469 264.769531 52.621094 263.976562 L 51.238281 262.484375 C 50.058594 261.203125 49.371094 259.585938 49.316406 257.917969 "/>
<path style=" stroke:none;fill-rule:nonzero;fill:rgb(86.27451%,5.098039%,8.235294%);fill-opacity:1;" d="M 57.105469 264.664062 L 56.539062 259.328125 C 56.425781 258.304688 57.765625 257.703125 58.535156 258.425781 L 60.03125 259.828125 C 61.300781 261.007812 62.082031 262.578125 62.265625 264.265625 L 62.832031 269.605469 C 62.9375 270.625 61.597656 271.21875 60.828125 270.496094 L 59.332031 269.09375 C 58.0625 267.90625 57.28125 266.335938 57.105469 264.664062 "/>
<path style=" stroke:none;fill-rule:nonzero;fill:rgb(86.27451%,5.098039%,8.235294%);fill-opacity:1;" d="M 65.347656 270.859375 L 64.421875 265.566406 C 64.246094 264.554688 65.535156 263.859375 66.363281 264.535156 L 67.941406 265.816406 C 69.285156 266.921875 70.175781 268.425781 70.464844 270.085938 L 71.402344 275.378906 C 71.578125 276.390625 70.289062 277.078125 69.472656 276.417969 L 67.882812 275.128906 C 66.539062 274.023438 65.636719 272.527344 65.347656 270.859375 "/>
<path style=" stroke:none;fill-rule:nonzero;fill:rgb(86.27451%,5.098039%,8.235294%);fill-opacity:1;" d="M 74.003906 276.464844 L 72.703125 271.246094 C 72.453125 270.253906 73.703125 269.472656 74.566406 270.085938 L 76.230469 271.257812 C 77.652344 272.257812 78.652344 273.699219 79.050781 275.332031 L 80.363281 280.539062 C 80.613281 281.542969 79.367188 282.3125 78.503906 281.703125 L 76.832031 280.539062 C 75.414062 279.539062 74.410156 278.109375 74.003906 276.464844 "/>
<path style=" stroke:none;fill-rule:nonzero;fill:rgb(86.27451%,5.098039%,8.235294%);fill-opacity:1;" d="M 83.027344 281.449219 L 81.363281 276.34375 C 81.046875 275.371094 82.226562 274.496094 83.136719 275.054688 L 84.882812 276.113281 C 86.359375 277.011719 87.464844 278.378906 87.984375 279.976562 L 89.644531 285.089844 C 89.960938 286.066406 88.78125 286.929688 87.863281 286.390625 L 86.125 285.332031 C 84.652344 284.421875 83.554688 283.058594 83.027344 281.449219 "/>
<path style=" stroke:none;fill-rule:nonzero;fill:rgb(86.27451%,5.098039%,8.235294%);fill-opacity:1;" d="M 92.382812 285.796875 L 90.371094 280.820312 C 89.980469 279.863281 91.101562 278.917969 92.050781 279.398438 L 93.859375 280.328125 C 95.410156 281.117188 96.609375 282.40625 97.230469 283.976562 L 99.246094 288.953125 C 99.636719 289.910156 98.519531 290.855469 97.574219 290.371094 L 95.753906 289.433594 C 94.195312 288.65625 93.015625 287.363281 92.382812 285.796875 "/>
<path style=" stroke:none;fill-rule:nonzero;fill:rgb(86.27451%,5.098039%,8.235294%);fill-opacity:1;" d="M 102.011719 289.480469 L 99.664062 284.652344 C 99.207031 283.734375 100.246094 282.703125 101.230469 283.121094 L 103.105469 283.929688 C 104.703125 284.617188 105.984375 285.8125 106.726562 287.328125 L 109.078125 292.15625 C 109.523438 293.082031 108.480469 294.09375 107.5 293.6875 L 105.621094 292.878906 C 104.027344 292.203125 102.753906 291.003906 102.011719 289.480469 "/>
<path style=" stroke:none;fill-rule:nonzero;fill:rgb(86.27451%,5.098039%,8.235294%);fill-opacity:1;" d="M 111.878906 292.480469 L 109.195312 287.828125 C 108.675781 286.929688 109.644531 285.84375 110.65625 286.195312 L 112.578125 286.863281 C 114.230469 287.4375 115.585938 288.542969 116.421875 290 L 119.113281 294.652344 C 119.632812 295.554688 118.648438 296.640625 117.644531 296.285156 L 115.734375 295.617188 C 114.082031 295.050781 112.726562 293.945312 111.878906 292.480469 "/>
<path style=" stroke:none;fill-rule:nonzero;fill:rgb(86.27451%,5.098039%,8.235294%);fill-opacity:1;" d="M 121.925781 294.78125 L 118.917969 290.335938 C 118.34375 289.472656 119.242188 288.320312 120.261719 288.597656 L 122.230469 289.136719 C 123.914062 289.59375 125.34375 290.605469 126.289062 292.007812 L 129.296875 296.453125 C 129.871094 297.308594 128.972656 298.457031 127.949219 298.191406 L 125.984375 297.652344 C 124.292969 297.195312 122.863281 296.195312 121.925781 294.78125 "/>
<path style=" stroke:none;fill-rule:nonzero;fill:rgb(86.27451%,5.098039%,8.235294%);fill-opacity:1;" d="M 132.121094 296.398438 L 128.8125 292.171875 C 128.171875 291.355469 128.992188 290.140625 130.03125 290.355469 L 132.035156 290.742188 C 133.742188 291.078125 135.238281 291.988281 136.277344 293.316406 L 139.582031 297.550781 C 140.214844 298.355469 139.398438 299.574219 138.359375 299.378906 L 136.363281 298.980469 C 134.652344 298.636719 133.160156 297.734375 132.121094 296.398438 "/>
<path style=" stroke:none;fill-rule:nonzero;fill:rgb(86.27451%,5.098039%,8.235294%);fill-opacity:1;" d="M 142.386719 297.289062 L 138.792969 293.296875 C 138.097656 292.527344 138.832031 291.253906 139.890625 291.394531 L 141.90625 291.644531 C 143.632812 291.859375 145.191406 292.664062 146.324219 293.917969 L 149.917969 297.910156 C 150.601562 298.683594 149.878906 299.953125 148.820312 299.8125 L 146.796875 299.554688 C 145.078125 299.339844 143.519531 298.542969 142.386719 297.289062 "/>
<path style=" stroke:none;fill-rule:nonzero;fill:rgb(86.27451%,5.098039%,8.235294%);fill-opacity:1;" d="M 152.703125 297.457031 L 148.839844 293.714844 C 148.097656 293 148.726562 291.691406 149.796875 291.746094 L 151.828125 291.867188 C 153.566406 291.960938 155.179688 292.648438 156.398438 293.816406 L 160.257812 297.550781 C 161 298.265625 160.371094 299.582031 159.300781 299.527344 L 157.269531 299.414062 C 155.515625 299.324219 153.917969 298.625 152.703125 297.457031 "/>
<path style=" stroke:none;fill-rule:nonzero;fill:rgb(86.27451%,5.098039%,8.235294%);fill-opacity:1;" d="M 162.996094 296.910156 L 158.882812 293.445312 C 158.09375 292.785156 158.632812 291.429688 159.703125 291.421875 L 161.734375 291.394531 C 163.472656 291.367188 165.132812 291.941406 166.421875 293.027344 L 170.546875 296.472656 C 171.335938 297.132812 170.796875 298.496094 169.726562 298.503906 L 167.6875 298.53125 C 165.941406 298.5625 164.289062 297.984375 162.996094 296.910156 "/>
<path style=" stroke:none;fill-rule:nonzero;fill:rgb(86.27451%,5.098039%,8.235294%);fill-opacity:1;" d="M 173.238281 295.636719 L 168.882812 292.480469 C 168.058594 291.875 168.503906 290.476562 169.5625 290.390625 L 171.59375 290.222656 C 173.3125 290.074219 175.019531 290.53125 176.375 291.53125 L 180.730469 294.691406 C 181.554688 295.292969 181.109375 296.695312 180.050781 296.769531 L 178.019531 296.945312 C 176.292969 297.085938 174.601562 296.628906 173.238281 295.636719 "/>
<path style=" stroke:none;fill-rule:nonzero;fill:rgb(86.27451%,5.098039%,8.235294%);fill-opacity:1;" d="M 183.347656 293.660156 L 178.796875 290.800781 C 177.925781 290.261719 178.269531 288.832031 179.320312 288.671875 L 181.332031 288.359375 C 183.050781 288.089844 184.777344 288.433594 186.207031 289.332031 L 190.765625 292.171875 C 191.636719 292.722656 191.285156 294.140625 190.238281 294.308594 L 188.222656 294.617188 C 186.503906 294.902344 184.785156 294.550781 183.347656 293.660156 "/>
<path style=" stroke:none;fill-rule:nonzero;fill:rgb(86.27451%,5.098039%,8.235294%);fill-opacity:1;" d="M 193.320312 290.976562 L 188.574219 288.460938 C 187.664062 287.96875 187.925781 286.527344 188.945312 286.296875 L 190.933594 285.84375 C 192.640625 285.453125 194.378906 285.675781 195.871094 286.464844 L 200.605469 288.988281 C 201.515625 289.472656 201.273438 290.910156 200.234375 291.152344 L 198.238281 291.597656 C 196.539062 291.996094 194.804688 291.773438 193.320312 290.976562 "/>
<path style=" stroke:none;fill-rule:nonzero;fill:rgb(86.27451%,5.098039%,8.235294%);fill-opacity:1;" d="M 203.066406 287.617188 L 198.15625 285.425781 C 197.21875 285.007812 197.355469 283.558594 198.367188 283.242188 L 200.328125 282.648438 C 201.988281 282.148438 203.746094 282.25 205.285156 282.9375 L 210.195312 285.117188 C 211.132812 285.546875 210.984375 286.992188 209.972656 287.308594 L 208.023438 287.894531 C 206.351562 288.394531 204.597656 288.300781 203.066406 287.617188 "/>
<path style=" stroke:none;fill-rule:nonzero;fill:rgb(86.27451%,5.098039%,8.235294%);fill-opacity:1;" d="M 212.554688 283.585938 L 207.503906 281.738281 C 206.53125 281.394531 206.585938 279.929688 207.558594 279.546875 L 209.472656 278.824219 C 211.105469 278.210938 212.851562 278.183594 214.441406 278.757812 L 219.480469 280.585938 C 220.457031 280.941406 220.410156 282.417969 219.425781 282.789062 L 217.511719 283.511719 C 215.886719 284.132812 214.140625 284.152344 212.554688 283.585938 "/>
<path style=" stroke:none;fill-rule:nonzero;fill:rgb(86.27451%,5.098039%,8.235294%);fill-opacity:1;" d="M 221.738281 278.886719 L 216.566406 277.402344 C 215.582031 277.113281 215.515625 275.65625 216.472656 275.203125 L 218.328125 274.347656 C 219.917969 273.613281 221.664062 273.476562 223.277344 273.929688 L 228.449219 275.417969 C 229.433594 275.703125 229.488281 277.160156 228.53125 277.605469 L 226.675781 278.460938 C 225.105469 279.214844 223.363281 279.351562 221.738281 278.886719 "/>
<path style=" stroke:none;fill-rule:nonzero;fill:rgb(86.27451%,5.098039%,8.235294%);fill-opacity:1;" d="M 230.566406 273.570312 L 225.3125 272.453125 C 224.300781 272.242188 224.152344 270.792969 225.078125 270.273438 L 226.863281 269.289062 C 228.382812 268.453125 230.121094 268.183594 231.773438 268.535156 L 237.027344 269.652344 C 238.03125 269.863281 238.1875 271.320312 237.269531 271.832031 L 235.46875 272.816406 C 233.945312 273.652344 232.21875 273.914062 230.566406 273.570312 "/>
<path style=" stroke:none;fill-rule:nonzero;fill:rgb(86.27451%,5.098039%,8.235294%);fill-opacity:1;" d="M 239.015625 267.644531 L 233.683594 266.894531 C 232.65625 266.753906 232.402344 265.316406 233.296875 264.738281 L 235.011719 263.636719 C 236.46875 262.6875 238.1875 262.296875 239.847656 262.53125 L 245.167969 263.28125 C 246.179688 263.429688 246.449219 264.871094 245.558594 265.4375 L 243.839844 266.550781 C 242.382812 267.496094 240.683594 267.878906 239.015625 267.644531 "/>
<path style=" stroke:none;fill-rule:nonzero;fill:rgb(86.27451%,5.098039%,8.235294%);fill-opacity:1;" d="M 247.015625 261.15625 L 241.660156 260.777344 C 240.640625 260.703125 240.277344 259.289062 241.128906 258.640625 L 242.753906 257.414062 C 244.140625 256.382812 245.828125 255.863281 247.5 255.996094 L 252.867188 256.367188 C 253.894531 256.441406 254.257812 257.859375 253.402344 258.5 L 251.761719 259.726562 C 250.378906 260.765625 248.707031 261.265625 247.015625 261.15625 "/>
<path style=" stroke:none;fill-rule:evenodd;fill:rgb(86.27451%,5.098039%,8.235294%);fill-opacity:1;" d="M 137.289062 31.398438 L 145.136719 25.746094 L 142.109375 16.488281 L 149.898438 22.207031 L 157.769531 16.460938 L 154.742188 25.640625 L 162.636719 31.34375 L 152.972656 31.296875 L 149.980469 40.578125 L 147.039062 31.371094 Z M 137.289062 31.398438 "/>
<path style=" stroke:none;fill-rule:evenodd;fill:rgb(86.27451%,5.098039%,8.235294%);fill-opacity:1;" d="M 92.949219 45.257812 L 98.039062 37.035156 L 91.695312 29.644531 L 101.082031 31.945312 L 106.152344 23.617188 L 106.867188 33.265625 L 116.355469 35.511719 L 107.40625 39.167969 L 108.195312 48.890625 L 101.945312 41.5 Z M 92.949219 45.257812 "/>
<path style=" stroke:none;fill-rule:evenodd;fill:rgb(86.27451%,5.098039%,8.235294%);fill-opacity:1;" d="M 57.289062 75.03125 L 58.851562 65.488281 L 50.152344 61.089844 L 59.714844 59.621094 L 61.207031 49.992188 L 65.5625 58.628906 L 75.179688 57.078125 L 68.3125 63.882812 L 72.757812 72.554688 L 64.171875 68.125 Z M 57.289062 75.03125 "/>
<path style=" stroke:none;fill-rule:evenodd;fill:rgb(86.27451%,5.098039%,8.235294%);fill-opacity:1;" d="M 35.742188 116.1875 L 33.523438 106.773438 L 23.804688 106.03125 L 32.074219 101.027344 L 29.773438 91.546875 L 37.097656 97.863281 L 45.390625 92.753906 L 41.648438 101.667969 L 49.085938 107.980469 L 39.449219 107.171875 Z M 35.742188 116.1875 "/>
<path style=" stroke:none;fill-rule:evenodd;fill:rgb(86.27451%,5.098039%,8.235294%);fill-opacity:1;" d="M 31.574219 162.460938 L 25.929688 154.613281 L 16.664062 157.648438 L 22.382812 149.851562 L 16.636719 141.980469 L 25.820312 145.015625 L 31.527344 137.113281 L 31.480469 146.777344 L 40.757812 149.769531 L 31.546875 152.710938 Z M 31.574219 162.460938 "/>
<path style=" stroke:none;fill-rule:evenodd;fill:rgb(86.27451%,5.098039%,8.235294%);fill-opacity:1;" d="M 45.433594 206.800781 L 37.21875 201.710938 L 29.820312 208.0625 L 32.121094 198.667969 L 23.804688 193.597656 L 33.441406 192.882812 L 35.695312 183.402344 L 39.355469 192.34375 L 49.066406 191.5625 L 41.683594 197.804688 Z M 45.433594 206.800781 "/>
<path style=" stroke:none;fill-rule:evenodd;fill:rgb(86.27451%,5.098039%,8.235294%);fill-opacity:1;" d="M 75.21875 242.457031 L 65.675781 240.90625 L 61.273438 249.597656 L 59.796875 240.042969 L 50.171875 238.539062 L 58.804688 234.195312 L 57.253906 224.566406 L 64.058594 231.4375 L 72.730469 226.992188 L 68.3125 235.589844 Z M 75.21875 242.457031 "/>
<path style=" stroke:none;fill-rule:evenodd;fill:rgb(86.27451%,5.098039%,8.235294%);fill-opacity:1;" d="M 116.375 264.015625 L 106.960938 266.226562 L 106.21875 275.945312 L 101.203125 267.671875 L 91.734375 269.976562 L 98.046875 262.652344 L 92.933594 254.359375 L 101.855469 258.09375 L 108.15625 250.675781 L 107.359375 260.3125 Z M 116.375 264.015625 "/>
<path style=" stroke:none;fill-rule:evenodd;fill:rgb(86.27451%,5.098039%,8.235294%);fill-opacity:1;" d="M 162.644531 268.175781 L 154.789062 273.820312 L 157.828125 283.085938 L 150.027344 277.367188 L 142.164062 283.113281 L 145.191406 273.929688 L 137.289062 268.222656 L 146.964844 268.269531 L 149.953125 258.992188 L 152.898438 268.191406 Z M 162.644531 268.175781 "/>
<path style=" stroke:none;fill-rule:evenodd;fill:rgb(86.27451%,5.098039%,8.235294%);fill-opacity:1;" d="M 206.984375 254.3125 L 201.886719 262.53125 L 208.238281 269.929688 L 198.851562 267.628906 L 193.78125 275.953125 L 193.066406 266.308594 L 183.578125 264.050781 L 192.53125 260.394531 L 191.742188 250.683594 L 197.988281 258.066406 Z M 206.984375 254.3125 "/>
<path style=" stroke:none;fill-rule:evenodd;fill:rgb(86.27451%,5.098039%,8.235294%);fill-opacity:1;" d="M 242.644531 224.539062 L 241.085938 234.074219 L 249.785156 238.484375 L 240.222656 239.953125 L 238.726562 249.578125 L 234.371094 240.945312 L 224.753906 242.496094 L 231.625 235.691406 L 227.175781 227.019531 L 235.765625 231.449219 Z M 242.644531 224.539062 "/>
<path style=" stroke:none;fill-rule:evenodd;fill:rgb(86.27451%,5.098039%,8.235294%);fill-opacity:1;" d="M 264.191406 183.386719 L 266.410156 192.789062 L 276.132812 193.53125 L 267.859375 198.546875 L 270.160156 208.015625 L 262.835938 201.703125 L 254.535156 206.816406 L 258.277344 197.90625 L 250.851562 191.59375 L 260.488281 192.390625 Z M 264.191406 183.386719 "/>
<path style=" stroke:none;fill-rule:evenodd;fill:rgb(86.27451%,5.098039%,8.235294%);fill-opacity:1;" d="M 268.359375 137.113281 L 274.003906 144.957031 L 283.269531 141.921875 L 277.550781 149.722656 L 283.289062 157.585938 L 274.105469 154.558594 L 268.40625 162.460938 L 268.453125 152.792969 L 259.179688 149.796875 L 268.378906 146.851562 Z M 268.359375 137.113281 "/>
<path style=" stroke:none;fill-rule:evenodd;fill:rgb(86.27451%,5.098039%,8.235294%);fill-opacity:1;" d="M 254.5 92.773438 L 262.714844 97.863281 L 270.113281 91.511719 L 267.8125 100.90625 L 276.132812 105.976562 L 266.496094 106.691406 L 264.238281 116.167969 L 260.582031 107.21875 L 250.871094 108.007812 L 258.242188 101.769531 Z M 254.5 92.773438 "/>
<path style=" stroke:none;fill-rule:evenodd;fill:rgb(86.27451%,5.098039%,8.235294%);fill-opacity:1;" d="M 224.71875 57.105469 L 234.261719 58.664062 L 238.660156 49.964844 L 240.136719 59.527344 L 249.765625 61.023438 L 241.128906 65.378906 L 242.679688 75.003906 L 235.867188 68.132812 L 227.203125 72.582031 L 231.625 63.984375 Z M 224.71875 57.105469 "/>
<path style=" stroke:none;fill-rule:evenodd;fill:rgb(86.27451%,5.098039%,8.235294%);fill-opacity:1;" d="M 183.5625 35.558594 L 192.976562 33.347656 L 193.71875 23.628906 L 198.730469 31.890625 L 208.199219 29.597656 L 201.886719 36.914062 L 207.003906 45.210938 L 198.089844 41.472656 L 191.777344 48.898438 L 192.574219 39.261719 Z M 183.5625 35.558594 "/>
<path style=" stroke:none;fill-rule:nonzero;fill:rgb(86.27451%,5.098039%,8.235294%);fill-opacity:1;" d="M 149.972656 49.175781 C 94.5 49.175781 49.363281 94.304688 49.363281 149.777344 C 49.363281 205.25 94.5 250.378906 149.972656 250.378906 C 205.445312 250.378906 250.574219 205.25 250.574219 149.777344 C 250.574219 94.304688 205.445312 49.175781 149.972656 49.175781 M 149.972656 252.6875 C 93.230469 252.6875 47.070312 206.519531 47.070312 149.785156 C 47.070312 93.050781 93.230469 46.875 149.972656 46.875 C 206.714844 46.875 252.875 93.042969 252.875 149.777344 C 252.875 206.511719 206.714844 252.6875 149.972656 252.6875 "/>
<path style=" stroke:none;fill-rule:nonzero;fill:rgb(86.27451%,5.098039%,8.235294%);fill-opacity:1;" d="M 106.171875 229.683594 L 109.121094 231.355469 L 107.933594 233.433594 L 99.523438 228.652344 L 100.703125 226.582031 L 103.691406 228.273438 L 108.722656 219.40625 L 111.210938 220.816406 Z M 106.171875 229.683594 "/>
<path style=" stroke:none;fill-rule:nonzero;fill:rgb(86.27451%,5.098039%,8.235294%);fill-opacity:1;" d="M 92.21875 225.894531 C 91.761719 226.460938 90.964844 226.546875 90.40625 226.082031 C 89.867188 225.644531 89.804688 224.875 90.257812 224.308594 C 90.695312 223.769531 91.464844 223.648438 92.011719 224.09375 C 92.589844 224.578125 92.644531 225.367188 92.21875 225.894531 M 92.847656 223.84375 L 97.414062 218.21875 C 98.78125 216.539062 98.835938 215.164062 97.703125 214.246094 C 96.542969 213.308594 95.253906 213.605469 93.839844 215.332031 L 89.273438 220.957031 L 87.074219 219.164062 L 91.519531 213.6875 C 93.972656 210.671875 96.65625 210.464844 99.207031 212.546875 C 101.667969 214.542969 102.019531 217.085938 99.484375 220.195312 L 95.066406 225.644531 Z M 89.199219 223.453125 C 88.746094 224.019531 87.964844 224.113281 87.398438 223.648438 C 86.851562 223.203125 86.785156 222.421875 87.242188 221.855469 C 87.675781 221.320312 88.449219 221.199219 89.015625 221.664062 C 89.589844 222.136719 89.636719 222.914062 89.199219 223.453125 "/>
<path style=" stroke:none;fill-rule:nonzero;fill:rgb(86.27451%,5.098039%,8.235294%);fill-opacity:1;" d="M 84.753906 208.785156 L 84.019531 207.941406 C 83.082031 206.875 81.996094 206.714844 81.167969 207.441406 C 80.296875 208.199219 80.378906 209.175781 81.226562 210.167969 C 81.679688 210.6875 81.976562 210.949219 82.144531 211.070312 Z M 82.542969 214.476562 C 81.828125 213.890625 80.84375 212.9375 79.851562 211.792969 C 78.617188 210.390625 77.964844 209.222656 77.902344 208.082031 C 77.863281 207.125 78.253906 206.234375 79.125 205.480469 C 80.332031 204.421875 81.910156 204.550781 82.914062 205.109375 L 82.953125 205.070312 C 82.644531 204.179688 82.960938 203.261719 83.621094 202.257812 C 84.429688 201.023438 85.402344 199.648438 85.605469 199.148438 L 87.527344 201.339844 C 87.398438 201.730469 86.8125 202.628906 85.902344 203.929688 C 84.949219 205.21875 84.984375 205.90625 85.738281 206.789062 L 86.304688 207.441406 L 90.027344 204.179688 L 91.882812 206.296875 Z M 82.542969 214.476562 "/>
<path style=" stroke:none;fill-rule:nonzero;fill:rgb(86.27451%,5.098039%,8.235294%);fill-opacity:1;" d="M 72.851562 202.917969 L 71.355469 200.523438 L 76.089844 197.578125 L 76.0625 197.535156 C 75.496094 197.550781 74.957031 197.535156 74.429688 197.535156 L 69.359375 197.320312 L 67.511719 194.359375 L 74.269531 195.054688 L 78.085938 187.496094 L 79.839844 190.320312 L 76.863281 195.816406 L 78.558594 196.039062 L 82.050781 193.867188 L 83.546875 196.261719 Z M 72.851562 202.917969 "/>
<path style=" stroke:none;fill-rule:nonzero;fill:rgb(86.27451%,5.098039%,8.235294%);fill-opacity:1;" d="M 64.132812 187.078125 L 75.589844 181.863281 L 76.777344 184.460938 L 65.320312 189.6875 Z M 63.4375 190.375 C 62.777344 190.671875 62.015625 190.386719 61.71875 189.714844 C 61.421875 189.074219 61.710938 188.34375 62.371094 188.046875 C 62.980469 187.765625 63.753906 188.015625 64.050781 188.65625 C 64.367188 189.34375 64.050781 190.097656 63.4375 190.375 "/>
<path style=" stroke:none;fill-rule:nonzero;fill:rgb(86.27451%,5.098039%,8.235294%);fill-opacity:1;" d="M 73 175.105469 L 68.078125 176.644531 L 62.164062 182.671875 L 61.191406 179.558594 L 63.695312 177.425781 C 64.457031 176.773438 65.023438 176.320312 65.710938 175.773438 L 65.703125 175.734375 C 64.867188 175.707031 64.085938 175.632812 63.121094 175.550781 L 59.851562 175.242188 L 58.898438 172.1875 L 67.140625 173.960938 L 72.15625 172.394531 Z M 73 175.105469 "/>
<path style=" stroke:none;fill-rule:nonzero;fill:rgb(86.27451%,5.098039%,8.235294%);fill-opacity:1;" d="M 63.964844 158.484375 L 64.632812 163.070312 L 67.585938 162.644531 L 66.84375 157.519531 L 69.15625 157.1875 L 70.316406 165.132812 L 57.847656 166.953125 L 56.734375 159.257812 L 59.046875 158.921875 L 59.75 163.785156 L 62.339844 163.40625 L 61.671875 158.820312 Z M 63.964844 158.484375 "/>
<path style=" stroke:none;fill-rule:nonzero;fill:rgb(86.27451%,5.098039%,8.235294%);fill-opacity:1;" d="M 69.148438 138.839844 C 69.371094 139.378906 69.5625 140.566406 69.445312 142.097656 C 69.128906 146.433594 66.257812 148.476562 62.683594 148.207031 C 58.394531 147.890625 56.242188 144.660156 56.519531 140.863281 C 56.632812 139.398438 57.003906 138.292969 57.308594 137.820312 L 59.519531 138.5625 C 59.230469 139.128906 58.953125 139.910156 58.878906 140.910156 C 58.710938 143.167969 59.945312 145.015625 62.742188 145.21875 C 65.257812 145.40625 66.945312 144.03125 67.132812 141.496094 C 67.195312 140.640625 67.085938 139.675781 66.898438 139.101562 Z M 69.148438 138.839844 "/>
<path style=" stroke:none;fill-rule:nonzero;fill:rgb(86.27451%,5.098039%,8.235294%);fill-opacity:1;" d="M 58.488281 129.558594 L 65.527344 131.285156 C 67.632812 131.804688 68.894531 131.265625 69.25 129.84375 C 69.601562 128.394531 68.785156 127.347656 66.621094 126.816406 L 59.585938 125.089844 L 60.261719 122.332031 L 67.121094 124.023438 C 70.890625 124.941406 72.230469 127.292969 71.441406 130.484375 C 70.6875 133.566406 68.535156 134.96875 64.632812 134.011719 L 57.8125 132.34375 Z M 58.488281 129.558594 "/>
<path style=" stroke:none;fill-rule:nonzero;fill:rgb(86.27451%,5.098039%,8.235294%);fill-opacity:1;" d="M 73.863281 109.679688 C 72.46875 109.09375 70.789062 108.371094 69.128906 107.589844 L 69.101562 107.636719 C 70.390625 108.667969 71.792969 109.902344 72.925781 110.960938 L 76.722656 114.425781 L 75.785156 116.4375 L 70.800781 115.59375 C 69.285156 115.332031 67.484375 114.972656 65.871094 114.542969 L 65.851562 114.582031 C 67.363281 115.371094 69.089844 116.234375 70.472656 116.988281 L 74.707031 119.207031 L 73.59375 121.589844 L 62.535156 115.546875 L 64.140625 112.113281 L 68.46875 112.773438 C 69.953125 113.03125 71.53125 113.347656 72.988281 113.710938 L 73.007812 113.664062 C 71.839844 112.726562 70.519531 111.640625 69.425781 110.671875 L 66.203125 107.683594 L 67.78125 104.324219 L 79.46875 109.011719 L 78.292969 111.535156 Z M 73.863281 109.679688 "/>
<path style=" stroke:none;fill-rule:nonzero;fill:rgb(86.27451%,5.098039%,8.235294%);fill-opacity:1;" d="M 73.316406 95.808594 L 77.203125 98.695312 L 80 94.929688 L 76.117188 92.039062 L 77.808594 89.757812 L 87.929688 97.265625 L 86.230469 99.550781 L 82.003906 96.402344 L 79.199219 100.171875 L 83.433594 103.320312 L 81.726562 105.613281 L 71.617188 98.101562 Z M 73.316406 95.808594 "/>
<path style=" stroke:none;fill-rule:nonzero;fill:rgb(86.27451%,5.098039%,8.235294%);fill-opacity:1;" d="M 84.277344 82.894531 L 89.238281 88.195312 C 90.722656 89.785156 92.078125 90.027344 93.136719 89.03125 C 94.230469 88.011719 94.121094 86.683594 92.597656 85.058594 L 87.640625 79.757812 L 89.71875 77.816406 L 94.546875 82.980469 C 97.203125 85.820312 97.035156 88.511719 94.628906 90.757812 C 92.308594 92.933594 89.738281 92.921875 87 89.988281 L 82.199219 84.855469 Z M 84.277344 82.894531 "/>
<path style=" stroke:none;fill-rule:nonzero;fill:rgb(86.27451%,5.098039%,8.235294%);fill-opacity:1;" d="M 100.292969 76.992188 L 101.230469 76.378906 C 102.410156 75.597656 102.726562 74.539062 102.121094 73.621094 C 101.492188 72.65625 100.515625 72.609375 99.410156 73.304688 C 98.835938 73.6875 98.546875 73.945312 98.390625 74.09375 Z M 94.964844 74.019531 C 95.652344 73.390625 96.71875 72.554688 97.980469 71.726562 C 99.542969 70.695312 100.785156 70.214844 101.929688 70.316406 C 102.882812 70.398438 103.710938 70.910156 104.339844 71.875 C 105.222656 73.210938 104.878906 74.761719 104.191406 75.691406 L 104.222656 75.730469 C 105.148438 75.550781 106.011719 75.980469 106.914062 76.777344 C 108.027344 77.742188 109.253906 78.902344 109.726562 79.171875 L 107.292969 80.769531 C 106.933594 80.585938 106.113281 79.898438 104.945312 78.800781 C 103.804688 77.679688 103.117188 77.613281 102.140625 78.234375 L 101.417969 78.707031 L 104.136719 82.839844 L 101.78125 84.390625 Z M 94.964844 74.019531 "/>
<path style=" stroke:none;fill-rule:nonzero;fill:rgb(86.27451%,5.098039%,8.235294%);fill-opacity:1;" d="M 110.03125 64.976562 L 115.585938 76.296875 L 113.023438 77.558594 L 107.46875 66.242188 Z M 106.71875 64.375 C 106.402344 63.726562 106.671875 62.964844 107.320312 62.636719 C 107.953125 62.332031 108.695312 62.59375 109.011719 63.242188 C 109.308594 63.84375 109.085938 64.625 108.445312 64.941406 C 107.777344 65.265625 107.015625 64.976562 106.71875 64.375 "/>
<path style=" stroke:none;fill-rule:nonzero;fill:rgb(86.27451%,5.098039%,8.235294%);fill-opacity:1;" d="M 122.363281 73.480469 L 120.691406 68.597656 L 114.515625 62.859375 L 117.597656 61.804688 L 119.800781 64.253906 C 120.46875 64.988281 120.933594 65.542969 121.5 66.210938 L 121.527344 66.203125 C 121.535156 65.367188 121.589844 64.589844 121.648438 63.613281 L 121.871094 60.34375 L 124.894531 59.304688 L 123.347656 67.597656 L 125.042969 72.5625 Z M 122.363281 73.480469 "/>
<path style=" stroke:none;fill-rule:nonzero;fill:rgb(86.27451%,5.098039%,8.235294%);fill-opacity:1;" d="M 138.628906 63.984375 L 134.058594 64.792969 L 134.578125 67.734375 L 139.675781 66.84375 L 140.085938 69.136719 L 132.164062 70.539062 L 129.984375 58.117188 L 137.644531 56.78125 L 138.042969 59.074219 L 133.207031 59.9375 L 133.660156 62.507812 L 138.21875 61.699219 Z M 138.628906 63.984375 "/>
<path style=" stroke:none;fill-rule:nonzero;fill:rgb(86.27451%,5.098039%,8.235294%);fill-opacity:1;" d="M 146.164062 58.527344 L 142.785156 58.617188 L 142.730469 56.222656 L 152.40625 55.980469 L 152.449219 58.378906 L 149.023438 58.460938 L 149.265625 68.65625 L 146.417969 68.730469 Z M 146.164062 58.527344 "/>
<path style=" stroke:none;fill-rule:nonzero;fill:rgb(86.27451%,5.098039%,8.235294%);fill-opacity:1;" d="M 157.695312 54.386719 C 157.761719 53.660156 158.402344 53.160156 159.125 53.222656 C 159.839844 53.289062 160.3125 53.902344 160.25 54.636719 C 160.183594 55.304688 159.589844 55.851562 158.882812 55.777344 C 158.132812 55.710938 157.632812 55.054688 157.695312 54.386719 M 160.203125 56.632812 L 159.003906 69.175781 L 156.15625 68.894531 L 157.351562 56.363281 Z M 160.203125 56.632812 "/>
<path style=" stroke:none;fill-rule:nonzero;fill:rgb(86.27451%,5.098039%,8.235294%);fill-opacity:1;" d="M 173.738281 61.636719 L 170.488281 60.707031 L 171.148438 58.40625 L 180.441406 61.070312 L 179.792969 63.371094 L 176.488281 62.425781 L 173.675781 72.21875 L 170.925781 71.441406 Z M 173.738281 61.636719 "/>
<path style=" stroke:none;fill-rule:nonzero;fill:rgb(86.27451%,5.098039%,8.235294%);fill-opacity:1;" d="M 186.011719 61.144531 C 186.300781 60.464844 187.042969 60.179688 187.71875 60.457031 C 188.371094 60.734375 188.65625 61.460938 188.371094 62.136719 C 188.101562 62.75 187.378906 63.09375 186.71875 62.816406 C 186.03125 62.527344 185.753906 61.765625 186.011719 61.144531 M 187.730469 64.039062 L 182.820312 75.644531 L 180.191406 74.523438 L 185.09375 62.925781 Z M 187.730469 64.039062 "/>
<path style=" stroke:none;fill-rule:nonzero;fill:rgb(86.27451%,5.098039%,8.235294%);fill-opacity:1;" d="M 195.046875 81.808594 C 194.460938 81.773438 193.308594 81.417969 191.980469 80.648438 C 188.222656 78.457031 187.644531 74.984375 189.457031 71.886719 C 191.621094 68.179688 195.472656 67.652344 198.769531 69.574219 C 200.050781 70.316406 200.855469 71.140625 201.164062 71.617188 L 199.53125 73.277344 C 199.148438 72.777344 198.5625 72.171875 197.691406 71.671875 C 195.742188 70.53125 193.53125 70.828125 192.121094 73.25 C 190.847656 75.433594 191.339844 77.558594 193.542969 78.839844 C 194.285156 79.265625 195.203125 79.589844 195.796875 79.675781 Z M 195.046875 81.808594 "/>
<path style=" stroke:none;fill-rule:nonzero;fill:rgb(86.27451%,5.098039%,8.235294%);fill-opacity:1;" d="M 206.234375 84.203125 L 207.335938 81.652344 C 207.644531 80.9375 208.070312 80.074219 208.414062 79.386719 L 208.386719 79.367188 C 207.765625 79.824219 207.011719 80.425781 206.382812 80.851562 L 204.097656 82.421875 Z M 202.425781 83.789062 L 199.667969 85.679688 L 197.414062 83.796875 L 208.433594 76.621094 L 211.292969 79.015625 L 206.203125 91.160156 L 203.855469 89.199219 L 205.183594 86.097656 Z M 202.425781 83.789062 "/>
<path style=" stroke:none;fill-rule:nonzero;fill:rgb(86.27451%,5.098039%,8.235294%);fill-opacity:1;" d="M 215.675781 91.203125 L 216.398438 92.058594 C 217.316406 93.136719 218.402344 93.3125 219.25 92.597656 C 220.121094 91.84375 220.054688 90.871094 219.222656 89.867188 C 218.773438 89.339844 218.476562 89.078125 218.3125 88.949219 Z M 217.949219 85.53125 C 218.65625 86.125 219.628906 87.09375 220.613281 88.242188 C 221.828125 89.65625 222.46875 90.832031 222.515625 91.976562 C 222.542969 92.933594 222.15625 93.8125 221.273438 94.566406 C 220.054688 95.605469 218.476562 95.464844 217.476562 94.898438 L 217.4375 94.9375 C 217.734375 95.828125 217.417969 96.746094 216.742188 97.742188 C 215.914062 98.964844 214.921875 100.332031 214.71875 100.832031 L 212.824219 98.613281 C 212.953125 98.234375 213.546875 97.332031 214.476562 96.042969 C 215.453125 94.761719 215.421875 94.074219 214.679688 93.183594 L 214.125 92.53125 L 210.363281 95.753906 L 208.527344 93.609375 Z M 217.949219 85.53125 "/>
<path style=" stroke:none;fill-rule:nonzero;fill:rgb(86.27451%,5.098039%,8.235294%);fill-opacity:1;" d="M 225.246094 107.40625 L 222.804688 103.460938 L 220.261719 105.039062 L 222.988281 109.4375 L 221.003906 110.671875 L 216.769531 103.832031 L 227.484375 97.203125 L 231.578125 103.8125 L 229.589844 105.039062 L 227 100.859375 L 224.78125 102.242188 L 227.222656 106.179688 Z M 225.246094 107.40625 "/>
<path style=" stroke:none;fill-rule:nonzero;fill:rgb(86.27451%,5.098039%,8.235294%);fill-opacity:1;" d="M 233.101562 112.316406 L 231.761719 109.214844 L 233.953125 108.257812 L 237.789062 117.144531 L 235.597656 118.089844 L 234.234375 114.945312 L 224.867188 118.972656 L 223.734375 116.355469 Z M 233.101562 112.316406 "/>
<path style=" stroke:none;fill-rule:nonzero;fill:rgb(86.27451%,5.098039%,8.235294%);fill-opacity:1;" d="M 236.703125 131.867188 L 236.871094 132.789062 C 237.148438 134.253906 237.890625 134.933594 238.820312 134.765625 C 239.757812 134.597656 240.109375 133.78125 239.878906 132.519531 C 239.765625 131.914062 239.664062 131.570312 239.582031 131.339844 Z M 231.214844 132.890625 C 231.226562 133.167969 231.289062 133.503906 231.375 133.976562 C 231.605469 135.238281 232.292969 136.269531 233.601562 136.027344 C 234.84375 135.796875 235.132812 134.589844 234.882812 133.1875 L 234.707031 132.230469 Z M 240.925781 128.210938 C 241.214844 128.917969 241.59375 130.382812 241.855469 131.785156 C 242.160156 133.492188 242.199219 134.570312 241.835938 135.5625 C 241.539062 136.511719 240.816406 137.289062 239.691406 137.503906 C 238.585938 137.707031 237.445312 137.253906 236.675781 135.953125 L 236.636719 135.960938 C 236.515625 137.449219 235.644531 138.691406 234.046875 138.988281 C 232.921875 139.195312 231.949219 138.851562 231.179688 138.191406 C 230.296875 137.421875 229.617188 135.992188 229.15625 133.53125 C 228.902344 132.15625 228.800781 131.105469 228.773438 130.464844 Z M 240.925781 128.210938 "/>
<path style=" stroke:none;fill-rule:nonzero;fill:rgb(86.27451%,5.098039%,8.235294%);fill-opacity:1;" d="M 236.257812 149.265625 L 238.921875 148.429688 C 239.664062 148.191406 240.59375 147.957031 241.335938 147.753906 L 241.335938 147.714844 C 240.59375 147.550781 239.625 147.371094 238.894531 147.175781 L 236.199219 146.472656 Z M 234.074219 146.109375 L 230.824219 145.265625 L 230.769531 142.3125 L 243.433594 145.941406 L 243.5 149.675781 L 230.972656 153.804688 L 230.917969 150.742188 L 234.140625 149.710938 Z M 234.074219 146.109375 "/>
<path style=" stroke:none;fill-rule:nonzero;fill:rgb(86.27451%,5.098039%,8.235294%);fill-opacity:1;" d="M 243.082031 158.867188 L 242.691406 161.652344 L 237.183594 160.890625 L 237.175781 160.945312 C 237.613281 161.289062 238.019531 161.652344 238.417969 161.984375 L 242.160156 165.394531 L 241.679688 168.847656 L 236.945312 163.980469 L 229.183594 167.324219 L 229.648438 164.039062 L 235.449219 161.734375 L 234.277344 160.480469 L 230.222656 159.914062 L 230.613281 157.121094 Z M 243.082031 158.867188 "/>
<path style=" stroke:none;fill-rule:nonzero;fill:rgb(86.27451%,5.098039%,8.235294%);fill-opacity:1;" d="M 231.363281 178.277344 L 234.140625 178.382812 C 234.917969 178.410156 235.875 178.492188 236.636719 178.546875 L 236.648438 178.511719 C 236.007812 178.09375 235.160156 177.621094 234.53125 177.191406 L 232.238281 175.632812 Z M 230.363281 174.574219 L 227.585938 172.699219 L 228.523438 169.894531 L 239.238281 177.546875 L 238.046875 181.082031 L 224.875 180.792969 L 225.847656 177.890625 L 229.21875 178 Z M 230.363281 174.574219 "/>
<path style=" stroke:none;fill-rule:nonzero;fill:rgb(86.27451%,5.098039%,8.235294%);fill-opacity:1;" d="M 223.480469 183.90625 L 234.519531 189.9375 L 232.933594 192.855469 L 227.632812 192.9375 C 226.109375 192.957031 224.382812 192.863281 222.871094 192.667969 L 222.839844 192.714844 C 224.390625 193.347656 225.90625 194.117188 227.558594 195.019531 L 230.777344 196.78125 L 229.527344 199.074219 L 218.488281 193.050781 L 219.917969 190.429688 L 225.46875 190.402344 C 227 190.394531 228.820312 190.449219 230.40625 190.617188 L 230.417969 190.5625 C 228.921875 189.835938 227.351562 189.011719 225.542969 188.027344 L 222.21875 186.207031 Z M 223.480469 183.90625 "/>
<path style=" stroke:none;fill-rule:nonzero;fill:rgb(86.27451%,5.098039%,8.235294%);fill-opacity:1;" d="M 225.886719 204.355469 L 224.132812 206.613281 L 216.101562 200.347656 L 213.027344 204.28125 L 211.144531 202.816406 L 215.972656 196.625 Z M 225.886719 204.355469 "/>
<path style=" stroke:none;fill-rule:nonzero;fill:rgb(86.27451%,5.098039%,8.235294%);fill-opacity:1;" d="M 206.65625 207.453125 L 208.664062 205.414062 L 217.628906 214.238281 L 215.625 216.277344 Z M 206.65625 207.453125 "/>
<path style=" stroke:none;fill-rule:nonzero;fill:rgb(86.27451%,5.098039%,8.235294%);fill-opacity:1;" d="M 209.316406 225.914062 C 209.027344 225.625 208.527344 225.441406 207.921875 225.914062 C 207.300781 226.386719 207.308594 226.898438 207.515625 227.308594 L 206.363281 228.199219 C 205.554688 227.09375 205.59375 225.820312 206.992188 224.734375 C 208.460938 223.601562 209.660156 223.9375 210.503906 225.003906 Z M 195.5 217.457031 C 196.011719 216.6875 197.078125 215.339844 198.398438 214.328125 C 200.214844 212.925781 201.886719 212.371094 203.492188 212.554688 C 205.070312 212.703125 206.574219 213.613281 207.691406 215.097656 C 210.234375 218.421875 209.277344 222.171875 206.011719 224.699219 C 204.71875 225.691406 203.539062 226.203125 202.863281 226.339844 L 201.945312 224.179688 C 202.675781 223.992188 203.511719 223.660156 204.597656 222.8125 C 206.472656 221.367188 207.078125 219.203125 205.40625 217.046875 C 203.828125 214.996094 201.601562 214.765625 199.753906 216.195312 C 199.234375 216.59375 198.871094 216.972656 198.75 217.195312 L 200.355469 219.285156 L 201.898438 218.097656 L 203.253906 219.863281 L 199.539062 222.722656 Z M 195.5 217.457031 "/>
<path style=" stroke:none;fill-rule:nonzero;fill:rgb(86.27451%,5.098039%,8.235294%);fill-opacity:1;" d="M 188.925781 220.601562 L 191.402344 219.175781 L 197.679688 230.078125 L 195.203125 231.503906 Z M 188.925781 220.601562 "/>
<path style=" stroke:none;fill-rule:nonzero;fill:rgb(86.27451%,5.098039%,8.235294%);fill-opacity:1;" d="M 149.972656 234.652344 C 147.976562 234.652344 146.359375 236.265625 146.359375 238.261719 C 146.359375 240.257812 147.976562 241.875 149.972656 241.875 C 151.96875 241.875 153.582031 240.257812 153.582031 238.261719 C 153.582031 236.257812 151.96875 234.652344 149.972656 234.652344 "/>
<path style=" stroke:none;fill-rule:nonzero;fill:rgb(86.27451%,5.098039%,8.235294%);fill-opacity:1;" d="M 149.960938 73.351562 C 107.824219 73.351562 73.539062 107.636719 73.539062 149.785156 C 73.539062 191.933594 107.824219 226.210938 149.960938 226.210938 C 192.101562 226.210938 226.398438 191.925781 226.398438 149.785156 C 226.398438 107.636719 192.101562 73.351562 149.960938 73.351562 Z M 210.53125 151.820312 L 214.402344 156.070312 L 206.769531 154.492188 L 202.910156 161.289062 L 202.035156 153.539062 L 194.40625 151.957031 L 201.496094 148.726562 L 200.625 140.984375 L 202.898438 143.464844 L 205.898438 146.730469 L 212.992188 143.519531 L 209.148438 150.289062 Z M 165.746094 155.179688 C 166.183594 159.023438 167.835938 162.421875 170.304688 165.03125 C 173.898438 168.808594 179.140625 170.953125 184.730469 170.332031 L 184.75 170.332031 C 185.871094 170.203125 186.941406 169.988281 187.980469 169.652344 C 191.601562 168.519531 194.675781 166.226562 196.808594 163.238281 C 195.242188 166.488281 192.863281 169.28125 189.921875 171.371094 C 187.320312 173.238281 184.292969 174.519531 180.972656 175.046875 C 180.617188 175.132812 180.246094 175.167969 179.894531 175.207031 C 174.480469 175.808594 169.308594 174.359375 165.179688 171.457031 C 160.304688 168.058594 156.871094 162.644531 156.15625 156.265625 C 155.691406 152.152344 156.425781 148.160156 158.105469 144.660156 C 159.886719 140.875 162.773438 137.652344 166.421875 135.480469 C 167.183594 134.996094 168 134.589844 168.855469 134.207031 C 170.785156 133.34375 172.894531 132.769531 175.105469 132.527344 C 182.679688 131.671875 189.800781 134.90625 194.257812 140.4375 C 190.726562 137.300781 185.957031 135.628906 180.914062 136.195312 C 178.371094 136.484375 176.050781 137.300781 174 138.523438 C 173.257812 138.972656 172.53125 139.492188 171.871094 140.039062 C 168.625 142.710938 166.414062 146.574219 165.792969 150.863281 C 165.597656 152.265625 165.578125 153.703125 165.746094 155.179688 Z M 122.882812 208.488281 C 90.453125 193.867188 76.027344 155.738281 90.648438 123.316406 C 105.269531 90.898438 143.410156 76.472656 175.835938 91.085938 C 194.832031 99.644531 207.652344 116.28125 212.070312 135.109375 C 207.085938 121.265625 196.714844 109.390625 182.242188 102.867188 C 153.898438 90.089844 120.550781 102.707031 107.777344 131.042969 C 95.003906 159.375 107.617188 192.714844 135.953125 205.488281 C 150.425781 212.015625 166.199219 211.921875 179.875 206.492188 C 162.839844 215.644531 141.875 217.046875 122.882812 208.488281 Z M 157.59375 205.582031 C 129.371094 204.070312 107.710938 179.976562 109.226562 151.753906 C 110.738281 123.53125 134.839844 101.882812 163.0625 103.386719 C 179.597656 104.265625 193.875 112.910156 202.566406 125.582031 C 194.886719 116.761719 183.792969 110.941406 171.195312 110.273438 C 146.519531 108.957031 125.445312 127.886719 124.136719 152.554688 C 122.816406 177.21875 141.746094 198.285156 166.421875 199.613281 C 179.019531 200.28125 190.671875 195.675781 199.25 187.730469 C 189.242188 199.398438 174.128906 206.464844 157.59375 205.582031 Z M 186.652344 192.019531 C 166.199219 200.820312 142.488281 191.378906 133.699219 170.933594 C 124.894531 150.492188 134.339844 126.78125 154.789062 117.988281 C 166.765625 112.828125 179.867188 113.941406 190.429688 119.847656 C 181.9375 116.300781 172.058594 116.078125 162.941406 120.003906 C 145.070312 127.691406 136.816406 148.414062 144.503906 166.285156 C 152.199219 184.15625 172.921875 192.398438 190.792969 184.710938 C 199.917969 180.785156 206.539062 173.460938 209.808594 164.855469 C 206.835938 176.589844 198.628906 186.867188 186.652344 192.019531 Z M 186.652344 192.019531 "/>
</g>
</svg>
