<?xml version="1.0" standalone="no"?>
<!DOCTYPE svg PUBLIC "-//W3C//DTD SVG 20010904//EN"
 "http://www.w3.org/TR/2001/REC-SVG-20010904/DTD/svg10.dtd">
<svg version="1.0" xmlns="http://www.w3.org/2000/svg"
 width="816.000000pt" height="257.000000pt" viewBox="0 0 816.000000 257.000000"
 preserveAspectRatio="xMidYMid meet">

<g transform="translate(0.000000,257.000000) scale(0.100000,-0.100000)"
fill="#000000" stroke="none">
<path d="M433 2450 c-113 -17 -231 -96 -289 -195 -55 -95 -54 -71 -54 -976 0
-789 1 -839 19 -892 35 -107 128 -208 231 -250 l55 -22 3675 0 3675 0 55 26
c108 51 193 150 224 260 15 50 16 149 14 905 l-3 849 -32 65 c-57 117 -166
202 -291 229 -61 13 -7190 14 -7279 1z m2056 -331 c30 -18 32 -22 19 -36 -14
-13 -19 -13 -46 1 -17 9 -48 16 -69 16 -123 0 -178 -159 -85 -243 51 -47 141
-40 186 14 41 48 35 58 -36 61 -50 2 -63 6 -66 21 -3 15 6 17 89 17 l92 0 -7
-42 c-17 -108 -109 -165 -219 -138 -80 21 -128 86 -128 175 0 77 38 139 101
164 45 18 132 13 169 -10z m334 1 c5 -19 0 -20 -74 -20 l-79 0 0 -60 0 -60 70
0 c63 0 70 -2 70 -20 0 -18 -7 -20 -70 -20 l-70 0 0 -55 0 -55 75 0 c68 0 75
-2 75 -20 0 -19 -7 -20 -100 -20 l-100 0 0 168 c0 93 3 172 7 175 3 4 48 7 99
7 83 0 92 -2 97 -20z m277 0 c0 -17 -7 -20 -45 -20 l-44 0 -3 -152 c-3 -150
-4 -153 -25 -156 -22 -3 -22 -2 -25 150 l-3 153 -47 3 c-45 3 -60 16 -41 35 3
4 57 7 120 7 106 0 113 -1 113 -20z m198 -158 c2 -167 2 -172 -18 -172 -19 0
-20 6 -20 176 0 162 1 175 18 172 15 -3 17 -21 20 -176z m290 156 c3 -14 -6
-17 -45 -20 l-48 -3 -3 -152 -3 -153 -24 0 -25 0 0 155 0 155 -45 0 c-39 0
-45 3 -45 20 0 20 5 21 117 18 101 -3 118 -5 121 -20z m409 -6 c76 -54 96
-182 39 -256 -68 -89 -188 -97 -267 -17 -84 84 -70 210 31 279 30 20 45 23
100 20 48 -2 74 -10 97 -26z m265 -106 l83 -134 3 134 c2 126 4 134 22 134 19
0 20 -8 20 -175 0 -175 0 -175 -22 -175 -19 0 -40 27 -108 138 l-85 137 -3
-137 c-2 -130 -4 -138 -22 -138 -19 0 -20 8 -20 175 l0 175 25 0 c20 0 37 -21
107 -134z m-3254 -427 c916 -497 832 -448 832 -488 0 -36 3 -33 -158 -121
l-134 -73 -94 94 -95 95 -289 -291 c-249 -249 -292 -288 -307 -279 -10 6 -21
26 -25 45 -5 19 -5 268 -2 554 7 563 7 565 60 565 14 0 110 -46 212 -101z
m1715 -69 c30 -11 75 -35 100 -53 l47 -33 -40 -39 -39 -38 -38 25 c-59 39
-108 51 -184 46 -166 -12 -283 -153 -265 -321 15 -150 136 -257 290 -257 114
0 196 47 237 135 35 74 35 74 -108 77 l-128 3 0 55 0 55 182 3 183 2 6 -26
c13 -51 -4 -156 -36 -220 -125 -253 -511 -264 -679 -20 -79 115 -92 269 -32
390 54 109 114 165 228 212 77 31 198 33 276 4z m2147 -385 l0 -385 -55 0 -55
0 0 385 0 385 55 0 55 0 0 -385z m1200 349 c175 -81 184 -327 15 -414 -42 -21
-65 -26 -162 -29 l-113 -3 0 -144 0 -144 -55 0 -55 0 0 381 0 381 163 -4 c137
-3 169 -7 207 -24z m350 -354 l0 -380 -55 0 -55 0 0 380 0 380 55 0 55 0 0
-380z m422 148 c22 -6 59 -29 83 -50 64 -57 75 -101 75 -310 l0 -168 -60 0
-60 0 0 32 0 32 -32 -31 c-18 -18 -46 -37 -61 -42 -82 -31 -203 11 -244 85
-29 51 -31 126 -3 171 47 78 174 118 283 91 54 -14 57 -14 57 3 0 10 -13 33
-29 51 -24 27 -36 32 -87 36 -51 3 -64 0 -98 -23 l-40 -27 -43 21 c-24 11 -43
24 -43 28 1 10 28 41 57 66 50 43 164 60 245 35z m-3437 -57 c158 -84 182
-306 46 -423 -75 -64 -199 -80 -287 -38 -54 27 -117 96 -132 148 -70 234 159
426 373 313z m551 14 c86 -35 154 -138 154 -234 0 -75 -17 -125 -62 -176 -52
-59 -113 -87 -191 -88 -144 -1 -252 94 -264 232 -7 72 9 129 50 183 71 93 202
128 313 83z m509 14 c22 -6 52 -20 68 -31 27 -19 27 -19 27 1 0 19 6 21 56 21
l55 0 -3 -277 -3 -278 -28 -55 c-33 -67 -81 -105 -154 -121 -105 -24 -217 20
-268 105 l-24 40 41 18 c52 23 65 23 73 -3 18 -56 145 -80 200 -37 33 26 55
75 55 123 l0 36 -28 -21 c-86 -64 -232 -34 -306 63 -112 147 -42 366 132 413
60 16 59 16 107 3z m805 -11 c45 -17 85 -55 114 -107 15 -29 26 -57 23 -64 -2
-7 -79 -43 -170 -81 -153 -63 -166 -70 -156 -88 36 -68 160 -77 220 -17 l22
22 43 -24 c24 -13 44 -27 44 -32 0 -17 -65 -70 -109 -90 -56 -24 -151 -26
-206 -3 -59 25 -122 91 -141 149 -25 74 -15 174 22 234 63 102 182 143 294
101z m1975 -145 c39 -89 73 -164 76 -167 2 -3 34 70 71 162 l65 167 68 3 c61
3 67 1 63 -15 -8 -27 -309 -717 -318 -726 -4 -4 -34 -7 -68 -5 l-61 3 60 125
60 125 -106 240 c-58 132 -105 244 -105 248 0 4 28 7 62 5 l63 -3 70 -162z"/>
<path d="M3824 2081 c-61 -37 -81 -134 -40 -196 56 -86 193 -73 232 21 19 45
18 70 -6 119 -35 71 -119 97 -186 56z"/>
<path d="M5812 1263 l3 -118 82 -3 c98 -3 144 12 173 60 24 40 25 69 4 114
-25 52 -58 64 -169 64 l-96 0 3 -117z"/>
<path d="M6703 979 c-40 -12 -66 -48 -61 -86 4 -39 61 -67 115 -57 42 8 123
79 123 108 0 37 -102 57 -177 35z"/>
<path d="M3202 1120 c-37 -22 -71 -88 -72 -134 0 -46 37 -113 76 -137 53 -32
123 -23 170 22 55 54 65 127 27 202 -32 64 -134 88 -201 47z"/>
<path d="M3759 1103 c-72 -67 -74 -165 -5 -232 47 -45 117 -54 170 -22 49 31
80 99 72 158 -11 84 -67 133 -151 133 -39 0 -52 -5 -86 -37z"/>
<path d="M4355 1120 c-43 -28 -65 -75 -65 -139 0 -99 63 -159 156 -148 37 4
54 12 76 36 63 71 60 175 -7 239 -29 27 -42 32 -82 32 -31 0 -59 -7 -78 -20z"/>
<path d="M5155 1139 c-40 -12 -58 -27 -84 -69 -23 -39 -27 -70 -8 -69 23 1
211 85 214 96 9 27 -75 56 -122 42z"/>
</g>
</svg>
